<svg width="20" height="20" viewBox="0 0 20 20" fill="none" xmlns="http://www.w3.org/2000/svg">
<path d="M11.25 3.33325C11.25 4.02361 10.6904 4.58325 10 4.58325C9.30964 4.58325 8.75 4.02361 8.75 3.33325C8.75 2.6429 9.30964 2.08325 10 2.08325C10.6904 2.08325 11.25 2.6429 11.25 3.33325Z" fill="black"/>
<path d="M11.25 9.99992C11.25 10.6903 10.6904 11.2499 10 11.2499C9.30964 11.2499 8.75 10.6903 8.75 9.99992C8.75 9.30956 9.30964 8.74992 10 8.74992C10.6904 8.74992 11.25 9.30956 11.25 9.99992Z" fill="black"/>
<path d="M10 17.9166C10.6904 17.9166 11.25 17.3569 11.25 16.6666C11.25 15.9762 10.6904 15.4166 10 15.4166C9.30964 15.4166 8.75 15.9762 8.75 16.6666C8.75 17.3569 9.30964 17.9166 10 17.9166Z" fill="black"/>
</svg>
