<svg width="16" height="16" viewBox="0 0 16 16" fill="none" xmlns="http://www.w3.org/2000/svg">
<path fill-rule="evenodd" clip-rule="evenodd" d="M8.16663 5C8.99163 5 9.66663 4.325 9.66663 3.5C9.66663 2.675 8.99163 2 8.16663 2C7.34163 2 6.66663 2.675 6.66663 3.5C6.66663 4.325 7.34163 5 8.16663 5ZM8.16663 6.5C7.34163 6.5 6.66663 7.175 6.66663 8C6.66663 8.825 7.34163 9.5 8.16663 9.5C8.99163 9.5 9.66663 8.825 9.66663 8C9.66663 7.175 8.99163 6.5 8.16663 6.5ZM8.16663 11C7.34163 11 6.66663 11.675 6.66663 12.5C6.66663 13.325 7.34163 14 8.16663 14C8.99163 14 9.66663 13.325 9.66663 12.5C9.66663 11.675 8.99163 11 8.16663 11Z" fill="#5F6368"/>
</svg>
