<svg width="20" height="20" viewBox="0 0 20 20" fill="none" xmlns="http://www.w3.org/2000/svg">
<path fill-rule="evenodd" clip-rule="evenodd" d="M15.7143 10.9524H10.9524V15.7143C10.9524 16.2381 10.5238 16.6667 10 16.6667C9.47619 16.6667 9.04762 16.2381 9.04762 15.7143V10.9524H4.28571C3.7619 10.9524 3.33333 10.5239 3.33333 10C3.33333 9.47623 3.7619 9.04766 4.28571 9.04766H9.04762V4.28575C9.04762 3.76195 9.47619 3.33337 10 3.33337C10.5238 3.33337 10.9524 3.76195 10.9524 4.28575V9.04766H15.7143C16.2381 9.04766 16.6667 9.47623 16.6667 10C16.6667 10.5239 16.2381 10.9524 15.7143 10.9524Z" fill="#3C4043"/>
</svg>
