<svg width="20" height="20" viewBox="0 0 20 20" fill="none" xmlns="http://www.w3.org/2000/svg">
<path d="M10 9.99414C9.83426 9.99414 9.67529 10.06 9.55808 10.1772C9.44087 10.2944 9.37502 10.4534 9.37502 10.6191V10.6241C9.37502 10.9691 9.65502 11.2491 10 11.2491H10.005C10.1708 11.2491 10.3298 11.1833 10.447 11.0661C10.5642 10.9489 10.63 10.7899 10.63 10.6241V10.6191C10.63 10.4534 10.5642 10.2944 10.447 10.1772C10.3298 10.06 10.1708 9.99414 10.005 9.99414H10ZM10 13.745C9.83426 13.745 9.67529 13.8108 9.55808 13.928C9.44087 14.0452 9.37502 14.2042 9.37502 14.37V14.3741C9.37502 14.7191 9.65419 14.9991 10 14.9991H10.0042C10.1699 14.9991 10.3289 14.9333 10.4461 14.8161C10.5633 14.6989 10.6292 14.5399 10.6292 14.3741V14.37C10.6292 14.2042 10.5633 14.0452 10.4461 13.928C10.3289 13.8108 10.1699 13.745 10.0042 13.745H10ZM7.49918 14.37C7.49918 14.2042 7.56503 14.0452 7.68224 13.928C7.79945 13.8108 7.95842 13.745 8.12419 13.745H8.12919C8.29495 13.745 8.45392 13.8108 8.57113 13.928C8.68834 14.0452 8.75419 14.2042 8.75419 14.37V14.375C8.75419 14.5407 8.68834 14.6997 8.57113 14.8169C8.45392 14.9341 8.29495 15 8.12919 15H8.12419C7.95842 15 7.79945 14.9341 7.68224 14.8169C7.56503 14.6997 7.49918 14.5407 7.49918 14.375V14.37ZM6.24919 13.745C6.08343 13.745 5.92445 13.8108 5.80724 13.928C5.69003 14.0452 5.62419 14.2042 5.62419 14.37V14.3741C5.62419 14.7191 5.90419 14.9991 6.24919 14.9991H6.25335C6.41911 14.9991 6.57808 14.9333 6.69529 14.8161C6.8125 14.6989 6.87835 14.5399 6.87835 14.3741V14.37C6.87835 14.2042 6.8125 14.0452 6.69529 13.928C6.57808 13.8108 6.41911 13.745 6.25335 13.745H6.24919ZM11.2492 12.4975C11.2492 12.3317 11.315 12.1727 11.4322 12.0555C11.5495 11.9383 11.7084 11.8725 11.8742 11.8725H11.8792C12.0449 11.8725 12.2039 11.9383 12.3211 12.0555C12.4383 12.1727 12.5042 12.3317 12.5042 12.4975V12.5016C12.5042 12.6674 12.4383 12.8264 12.3211 12.9436C12.2039 13.0608 12.0449 13.1266 11.8792 13.1266H11.8742C11.7084 13.1266 11.5495 13.0608 11.4322 12.9436C11.315 12.8264 11.2492 12.6674 11.2492 12.5016V12.4975ZM11.875 13.745C11.7093 13.745 11.5503 13.8108 11.4331 13.928C11.3159 14.0452 11.25 14.2042 11.25 14.37V14.375C11.25 14.72 11.5292 15 11.875 15H11.8792C12.0449 15 12.2039 14.9341 12.3211 14.8169C12.4383 14.6997 12.5042 14.5407 12.5042 14.375V14.37C12.5042 14.2042 12.4383 14.0452 12.3211 13.928C12.2039 13.8108 12.0449 13.745 11.8792 13.745H11.875ZM13.125 12.4958C13.125 12.33 13.1909 12.1711 13.3081 12.0539C13.4253 11.9367 13.5843 11.8708 13.75 11.8708H13.7542C13.9199 11.8708 14.0789 11.9367 14.1961 12.0539C14.3133 12.1711 14.3792 12.33 14.3792 12.4958V12.5008C14.3792 12.6666 14.3133 12.8255 14.1961 12.9427C14.0789 13.06 13.9199 13.1258 13.7542 13.1258H13.75C13.5843 13.1258 13.4253 13.06 13.3081 12.9427C13.1909 12.8255 13.125 12.6666 13.125 12.5008V12.4958ZM11.2484 10.6191C11.2484 10.4534 11.3142 10.2944 11.4314 10.1772C11.5486 10.06 11.7076 9.99414 11.8734 9.99414H13.7484C13.9141 9.99414 14.0731 10.06 14.1903 10.1772C14.3075 10.2944 14.3734 10.4534 14.3734 10.6191C14.3734 10.7849 14.3075 10.9439 14.1903 11.0611C14.0731 11.1783 13.9141 11.2441 13.7484 11.2441H11.8734C11.7076 11.2441 11.5486 11.1783 11.4314 11.0611C11.3142 10.9439 11.2484 10.7849 11.2484 10.6191ZM5.62335 12.4941C5.62335 12.3284 5.6892 12.1694 5.80641 12.0522C5.92362 11.935 6.08259 11.8691 6.24835 11.8691H9.99835C10.1641 11.8691 10.3231 11.935 10.4403 12.0522C10.5575 12.1694 10.6234 12.3284 10.6234 12.4941C10.6234 12.6599 10.5575 12.8189 10.4403 12.9361C10.3231 13.0533 10.1641 13.1191 9.99835 13.1191H6.24835C6.08259 13.1191 5.92362 13.0533 5.80641 12.9361C5.6892 12.8189 5.62335 12.6599 5.62335 12.4941Z" fill="#6B7280"/>
<path fill-rule="evenodd" clip-rule="evenodd" d="M15 2.49414C15 2.32838 14.9342 2.16941 14.817 2.0522C14.6997 1.93499 14.5408 1.86914 14.375 1.86914C14.2093 1.86914 14.0503 1.93499 13.9331 2.0522C13.8159 2.16941 13.75 2.32838 13.75 2.49414V3.74414H6.25002V2.49497C6.25002 2.32921 6.18417 2.17024 6.06696 2.05303C5.94975 1.93582 5.79078 1.86997 5.62502 1.86997C5.45926 1.86997 5.30029 1.93582 5.18308 2.05303C5.06587 2.17024 5.00002 2.32921 5.00002 2.49497V3.74247H4.37335C3.71031 3.74247 3.07443 4.00587 2.60559 4.47471C2.13674 4.94355 1.87335 5.57943 1.87335 6.24247V15.6191C1.87335 16.2822 2.13674 16.9181 2.60559 17.3869C3.07443 17.8557 3.71031 18.1191 4.37335 18.1191H15.6234C16.2864 18.1191 16.9223 17.8557 17.3911 17.3869C17.86 16.9181 18.1234 16.2822 18.1234 15.6191V6.24331C18.1234 5.58027 17.86 4.94438 17.3911 4.47554C16.9223 4.0067 16.2864 3.74331 15.6234 3.74331H15V2.49414ZM3.12335 15.6191V9.36914C3.12335 9.03762 3.25505 8.71968 3.48947 8.48526C3.72389 8.25084 4.04183 8.11914 4.37335 8.11914H15.6234C15.9549 8.11914 16.2728 8.25084 16.5072 8.48526C16.7417 8.71968 16.8734 9.03762 16.8734 9.36914V15.6191C16.8734 15.9507 16.7417 16.2686 16.5072 16.503C16.2728 16.7374 15.9549 16.8691 15.6234 16.8691H4.37335C4.04183 16.8691 3.72389 16.7374 3.48947 16.503C3.25505 16.2686 3.12335 15.9507 3.12335 15.6191Z" fill="#6B7280"/>
</svg>
