<svg width="20" height="20" viewBox="0 0 20 20" fill="none" xmlns="http://www.w3.org/2000/svg">
<path fill-rule="evenodd" clip-rule="evenodd" d="M2.5 5C2.5 4.33696 2.76339 3.70107 3.23223 3.23223C3.70107 2.76339 4.33696 2.5 5 2.5H6.875C7.53804 2.5 8.17393 2.76339 8.64277 3.23223C9.11161 3.70107 9.375 4.33696 9.375 5V6.875C9.375 7.53804 9.11161 8.17393 8.64277 8.64277C8.17393 9.11161 7.53804 9.375 6.875 9.375H5C4.33696 9.375 3.70107 9.11161 3.23223 8.64277C2.76339 8.17393 2.5 7.53804 2.5 6.875V5ZM10.625 5C10.625 4.33696 10.8884 3.70107 11.3572 3.23223C11.8261 2.76339 12.462 2.5 13.125 2.5H15C15.663 2.5 16.2989 2.76339 16.7678 3.23223C17.2366 3.70107 17.5 4.33696 17.5 5V6.875C17.5 7.53804 17.2366 8.17393 16.7678 8.64277C16.2989 9.11161 15.663 9.375 15 9.375H13.125C12.462 9.375 11.8261 9.11161 11.3572 8.64277C10.8884 8.17393 10.625 7.53804 10.625 6.875V5ZM2.5 13.125C2.5 12.462 2.76339 11.8261 3.23223 11.3572C3.70107 10.8884 4.33696 10.625 5 10.625H6.875C7.53804 10.625 8.17393 10.8884 8.64277 11.3572C9.11161 11.8261 9.375 12.462 9.375 13.125V15C9.375 15.663 9.11161 16.2989 8.64277 16.7678C8.17393 17.2366 7.53804 17.5 6.875 17.5H5C4.33696 17.5 3.70107 17.2366 3.23223 16.7678C2.76339 16.2989 2.5 15.663 2.5 15V13.125ZM10.625 13.125C10.625 12.462 10.8884 11.8261 11.3572 11.3572C11.8261 10.8884 12.462 10.625 13.125 10.625H15C15.663 10.625 16.2989 10.8884 16.7678 11.3572C17.2366 11.8261 17.5 12.462 17.5 13.125V15C17.5 15.663 17.2366 16.2989 16.7678 16.7678C16.2989 17.2366 15.663 17.5 15 17.5H13.125C12.462 17.5 11.8261 17.2366 11.3572 16.7678C10.8884 16.2989 10.625 15.663 10.625 15V13.125Z" fill="#E6E7EB"/>
</svg>
