<svg width="20" height="20" viewBox="0 0 20 20" fill="none" xmlns="http://www.w3.org/2000/svg">
<path d="M6.25 3.33341C6.71024 3.33341 7.08333 2.96032 7.08333 2.50008C7.08333 2.03984 6.71024 1.66675 6.25 1.66675H5C3.15905 1.66675 1.66667 3.15913 1.66667 5.00008V15.0001C1.66667 16.841 3.15905 18.3334 5 18.3334H6.25C6.71024 18.3334 7.08333 17.9603 7.08333 17.5001C7.08333 17.0398 6.71024 16.6667 6.25 16.6667H5C4.07953 16.6667 3.33333 15.9206 3.33333 15.0001L3.33333 5.00008C3.33333 4.07961 4.07953 3.33341 5 3.33341H6.25Z" fill="#EF4444"/>
<path d="M18.9226 10.5893C19.248 10.2639 19.248 9.73626 18.9226 9.41083L15.5893 6.07749C15.2638 5.75206 14.7362 5.75206 14.4107 6.07749C14.0853 6.40293 14.0853 6.93057 14.4107 7.256L16.3215 9.16675L6.66667 9.16675C6.20643 9.16675 5.83333 9.53984 5.83333 10.0001C5.83333 10.4603 6.20643 10.8334 6.66667 10.8334L16.3215 10.8334L14.4107 12.7442C14.0853 13.0696 14.0853 13.5972 14.4107 13.9227C14.7362 14.2481 15.2638 14.2481 15.5893 13.9227L18.9226 10.5893Z" fill="#EF4444"/>
</svg>
