<svg width="8" height="8" viewBox="0 0 8 8" fill="none" xmlns="http://www.w3.org/2000/svg">
<path d="M0.818024 2.64639C0.911788 2.55266 1.03894 2.5 1.17152 2.5C1.30411 2.5 1.43126 2.55266 1.52502 2.64639L4.00002 5.12139L6.47502 2.64639C6.56933 2.55531 6.69563 2.50492 6.82673 2.50606C6.95782 2.5072 7.08323 2.55978 7.17593 2.65248C7.26864 2.74519 7.32122 2.87059 7.32236 3.00169C7.3235 3.13279 7.2731 3.25909 7.18202 3.35339L4.35352 6.18189C4.25976 6.27563 4.13261 6.32829 4.00002 6.32829C3.86744 6.32829 3.74029 6.27563 3.64652 6.18189L0.818024 3.35339C0.724289 3.25963 0.671631 3.13248 0.671631 2.99989C0.671631 2.86731 0.724289 2.74016 0.818024 2.64639Z" fill="#041133"/>
</svg>
