<svg width="20" height="20" viewBox="0 0 20 20" fill="none" xmlns="http://www.w3.org/2000/svg">
<path fill-rule="evenodd" clip-rule="evenodd" d="M15.7143 10.9523H10.9524V15.7142C10.9524 16.238 10.5238 16.6666 10 16.6666C9.47619 16.6666 9.04762 16.238 9.04762 15.7142V10.9523H4.28571C3.7619 10.9523 3.33333 10.5237 3.33333 9.99992C3.33333 9.47611 3.7619 9.04754 4.28571 9.04754H9.04762V4.28563C9.04762 3.76182 9.47619 3.33325 10 3.33325C10.5238 3.33325 10.9524 3.76182 10.9524 4.28563V9.04754H15.7143C16.2381 9.04754 16.6667 9.47611 16.6667 9.99992C16.6667 10.5237 16.2381 10.9523 15.7143 10.9523Z" fill="#3C4043"/>
</svg>
