<svg width="16" height="16" viewBox="0 0 16 16" fill="none" xmlns="http://www.w3.org/2000/svg">
<path d="M7.99985 2.01073C8.18257 1.98544 8.37476 2.0354 8.52231 2.16893L13.7889 6.93554C14.0525 7.17414 14.074 7.58084 13.8368 7.84569C13.5978 8.11246 13.1873 8.13387 12.9217 7.89354L12.495 7.50682V13C12.4947 13.552 12.047 13.9999 11.495 14H4.47348C3.92153 13.9998 3.47372 13.5519 3.47348 13V7.53514L3.07797 7.89354C2.81241 8.13377 2.40188 8.11243 2.16293 7.84569C1.92591 7.58089 1.94738 7.17412 2.21078 6.93554L7.47836 2.16893C7.62582 2.03553 7.81725 1.98555 7.99985 2.01073ZM4.76254 6.36913V12.7041H11.2059V6.33983L7.99985 3.43846L4.76254 6.36913Z" fill="#5F6368"/>
</svg>
