<svg width="20" height="20" viewBox="0 0 20 20" fill="none" xmlns="http://www.w3.org/2000/svg">
<path fill-rule="evenodd" clip-rule="evenodd" d="M15.7142 10.9523H10.9523V15.7142C10.9523 16.238 10.5237 16.6666 9.99992 16.6666C9.47611 16.6666 9.04754 16.238 9.04754 15.7142V10.9523H4.28563C3.76182 10.9523 3.33325 10.5237 3.33325 9.99992C3.33325 9.47611 3.76182 9.04754 4.28563 9.04754H9.04754V4.28563C9.04754 3.76182 9.47611 3.33325 9.99992 3.33325C10.5237 3.33325 10.9523 3.76182 10.9523 4.28563V9.04754H15.7142C16.238 9.04754 16.6666 9.47611 16.6666 9.99992C16.6666 10.5237 16.238 10.9523 15.7142 10.9523Z" fill="#3C4043"/>
</svg>
