<svg width="20" height="20" viewBox="0 0 20 20" fill="none" xmlns="http://www.w3.org/2000/svg">
<path d="M6.24984 3.33317C6.71008 3.33317 7.08317 2.96007 7.08317 2.49984C7.08317 2.0396 6.71008 1.6665 6.24984 1.6665H4.99984C3.15889 1.6665 1.6665 3.15889 1.6665 4.99984V14.9998C1.6665 16.8408 3.15889 18.3332 4.99984 18.3332H6.24984C6.71007 18.3332 7.08317 17.9601 7.08317 17.4998C7.08317 17.0396 6.71007 16.6665 6.24984 16.6665H4.99984C4.07936 16.6665 3.33317 15.9203 3.33317 14.9998L3.33317 4.99984C3.33317 4.07936 4.07936 3.33317 4.99984 3.33317H6.24984Z" fill="#EF4444"/>
<path d="M18.9224 10.5891C19.2479 10.2637 19.2479 9.73602 18.9224 9.41058L15.5891 6.07725C15.2637 5.75181 14.736 5.75181 14.4106 6.07725C14.0851 6.40268 14.0851 6.93032 14.4106 7.25576L16.3213 9.1665L6.6665 9.1665C6.20627 9.1665 5.83317 9.5396 5.83317 9.99984C5.83317 10.4601 6.20627 10.8332 6.6665 10.8332L16.3213 10.8332L14.4106 12.7439C14.0851 13.0694 14.0851 13.597 14.4106 13.9224C14.736 14.2479 15.2637 14.2479 15.5891 13.9224L18.9224 10.5891Z" fill="#EF4444"/>
</svg>
