<svg width="20" height="20" viewBox="0 0 20 20" fill="none" xmlns="http://www.w3.org/2000/svg">
<path fill-rule="evenodd" clip-rule="evenodd" d="M15.7144 10.9523H10.9525V15.7142C10.9525 16.238 10.524 16.6666 10.0002 16.6666C9.47635 16.6666 9.04778 16.238 9.04778 15.7142V10.9523H4.28588C3.76207 10.9523 3.3335 10.5237 3.3335 9.99992C3.3335 9.47611 3.76207 9.04754 4.28588 9.04754H9.04778V4.28563C9.04778 3.76182 9.47635 3.33325 10.0002 3.33325C10.524 3.33325 10.9525 3.76182 10.9525 4.28563V9.04754H15.7144C16.2383 9.04754 16.6668 9.47611 16.6668 9.99992C16.6668 10.5237 16.2383 10.9523 15.7144 10.9523Z" fill="#3C4043"/>
</svg>
