<svg width="14" height="14" viewBox="0 0 14 14" fill="none" xmlns="http://www.w3.org/2000/svg">
<path fill-rule="evenodd" clip-rule="evenodd" d="M5.01842 2.21608C5.26456 1.93213 5.56892 1.70447 5.91084 1.54856C6.25276 1.39265 6.62422 1.31214 7 1.3125C7.79159 1.3125 8.50092 1.6625 8.98159 2.21608C9.35649 2.18932 9.73277 2.24355 10.0849 2.3751C10.4369 2.50666 10.7566 2.71245 11.0221 2.9785C11.288 3.24395 11.4938 3.56351 11.6253 3.91548C11.7569 4.26746 11.8111 4.64361 11.7845 5.01842C12.0683 5.26461 12.2959 5.569 12.4517 5.91091C12.6075 6.25283 12.6879 6.62426 12.6875 7C12.6879 7.37579 12.6073 7.74725 12.4514 8.08916C12.2955 8.43108 12.0679 8.73544 11.7839 8.98158C11.8106 9.35639 11.7563 9.73254 11.6247 10.0845C11.4932 10.4365 11.2874 10.756 11.0215 11.0215C10.756 11.2874 10.4365 11.4932 10.0845 11.6247C9.73255 11.7563 9.35639 11.8106 8.98159 11.7839C8.73544 12.0679 8.43108 12.2955 8.08916 12.4514C7.74725 12.6073 7.37579 12.6879 7 12.6875C6.62422 12.6879 6.25276 12.6073 5.91084 12.4514C5.56892 12.2955 5.26456 12.0679 5.01842 11.7839C4.64356 11.8108 4.26731 11.7566 3.91522 11.6252C3.56314 11.4937 3.24347 11.288 2.97792 11.0221C2.7119 10.7566 2.50613 10.4369 2.37458 10.0848C2.24302 9.73275 2.18877 9.35649 2.2155 8.98158C1.93166 8.73539 1.70411 8.431 1.5483 8.08909C1.39249 7.74717 1.31207 7.37574 1.3125 7C1.3125 6.20842 1.6625 5.49908 2.21609 5.01842C2.1894 4.64361 2.24368 4.26744 2.37523 3.91546C2.50678 3.56348 2.71253 3.24393 2.9785 2.9785C3.24393 2.71253 3.56349 2.50678 3.91546 2.37523C4.26744 2.24368 4.64361 2.1894 5.01842 2.21608ZM9.10584 5.94183C9.14084 5.8952 9.16616 5.84203 9.18032 5.78547C9.19448 5.72891 9.19719 5.67008 9.18829 5.61246C9.17939 5.55483 9.15906 5.49957 9.1285 5.44991C9.09794 5.40025 9.05776 5.3572 9.01032 5.3233C8.96288 5.28939 8.90914 5.26531 8.85227 5.25247C8.79539 5.23963 8.73652 5.23828 8.67911 5.24852C8.62171 5.25876 8.56693 5.28036 8.518 5.31207C8.46906 5.34378 8.42696 5.38495 8.39417 5.43317L6.5065 8.07567L5.55917 7.12833C5.47623 7.05105 5.36654 7.00898 5.2532 7.01098C5.13986 7.01298 5.03171 7.0589 4.95156 7.13906C4.8714 7.21921 4.82548 7.32735 4.82348 7.4407C4.82148 7.55404 4.86356 7.66373 4.94084 7.74667L6.25334 9.05917C6.29825 9.10404 6.35239 9.13861 6.41199 9.16046C6.4716 9.18231 6.53526 9.19093 6.59853 9.18571C6.6618 9.18049 6.72319 9.16157 6.77841 9.13025C6.83364 9.09893 6.88138 9.05596 6.91833 9.00433L9.10584 5.94183Z" fill="#22C55E"/>
</svg>
