<svg width="14" height="14" viewBox="0 0 14 14" fill="none" xmlns="http://www.w3.org/2000/svg">
<path fill-rule="evenodd" clip-rule="evenodd" d="M7.309 9.49684C7.22696 9.57877 7.11577 9.62479 6.99983 9.62479C6.88389 9.62479 6.77269 9.57877 6.69066 9.49684L2.31566 5.12184C2.23838 5.0389 2.19631 4.92921 2.19831 4.81587C2.20031 4.70252 2.24623 4.59438 2.32638 4.51422C2.40654 4.43407 2.51468 4.38815 2.62802 4.38615C2.74137 4.38415 2.85106 4.42622 2.934 4.5035L6.99983 8.56934L11.0657 4.5035C11.1057 4.46052 11.154 4.42604 11.2077 4.40213C11.2613 4.37822 11.3193 4.36536 11.378 4.36433C11.4368 4.36329 11.4951 4.3741 11.5496 4.3961C11.6041 4.4181 11.6536 4.45085 11.6951 4.4924C11.7366 4.53394 11.7694 4.58343 11.7914 4.63791C11.8134 4.69238 11.8242 4.75073 11.8232 4.80948C11.8221 4.86822 11.8093 4.92615 11.7854 4.97982C11.7615 5.03348 11.727 5.08178 11.684 5.12184L7.309 9.49684Z" fill="white"/>
</svg>
