<svg width="24" height="24" viewBox="0 0 24 24" fill="none" xmlns="http://www.w3.org/2000/svg">
<path fill-rule="evenodd" clip-rule="evenodd" d="M5.47032 5.46991C5.61094 5.32946 5.80157 5.25057 6.00032 5.25057C6.19907 5.25057 6.38969 5.32946 6.53032 5.46991L12.0003 10.9399L17.4703 5.46991C17.539 5.39622 17.6218 5.33712 17.7138 5.29613C17.8058 5.25514 17.9051 5.23309 18.0058 5.23132C18.1065 5.22954 18.2065 5.24807 18.2999 5.28579C18.3933 5.32351 18.4781 5.37965 18.5494 5.45087C18.6206 5.52209 18.6767 5.60692 18.7144 5.70031C18.7522 5.7937 18.7707 5.89373 18.7689 5.99443C18.7671 6.09513 18.7451 6.19445 18.7041 6.28645C18.6631 6.37845 18.604 6.46125 18.5303 6.52991L13.0603 11.9999L18.5303 17.4699C18.604 17.5386 18.6631 17.6214 18.7041 17.7134C18.7451 17.8054 18.7671 17.9047 18.7689 18.0054C18.7707 18.1061 18.7522 18.2061 18.7144 18.2995C18.6767 18.3929 18.6206 18.4777 18.5494 18.5489C18.4781 18.6202 18.3933 18.6763 18.2999 18.714C18.2065 18.7518 18.1065 18.7703 18.0058 18.7685C17.9051 18.7667 17.8058 18.7447 17.7138 18.7037C17.6218 18.6627 17.539 18.6036 17.4703 18.5299L12.0003 13.0599L6.53032 18.5299C6.38814 18.6624 6.2001 18.7345 6.00579 18.7311C5.81149 18.7277 5.62611 18.6489 5.48869 18.5115C5.35128 18.3741 5.27257 18.1887 5.26914 17.9944C5.26571 17.8001 5.33784 17.6121 5.47032 17.4699L10.9403 11.9999L5.47032 6.52991C5.32987 6.38928 5.25098 6.19866 5.25098 5.99991C5.25098 5.80116 5.32987 5.61053 5.47032 5.46991Z" fill="black"/>
</svg>
