<svg width="15" height="18" viewBox="0 0 15 18" fill="none" xmlns="http://www.w3.org/2000/svg">
<path d="M11.875 6.42871C11.875 5.7721 11.7618 5.12192 11.542 4.51529C11.3221 3.90867 10.9998 3.35747 10.5936 2.89318C10.1873 2.42888 9.70504 2.06059 9.17424 1.80931C8.64344 1.55804 8.07453 1.42871 7.5 1.42871C6.92547 1.42871 6.35656 1.55804 5.82576 1.80931C5.29496 2.06059 4.81266 2.42888 4.40641 2.89318C4.00015 3.35747 3.67789 3.90867 3.45803 4.51529C3.23816 5.12192 3.125 5.7721 3.125 6.42871C3.125 7.41943 3.38063 8.34085 3.81563 9.118H3.81063L7.5 15.7144L11.1894 9.118H11.185C11.6356 8.31557 11.8751 7.38216 11.875 6.42871ZM7.5 8.57157C7.00272 8.57157 6.52581 8.3458 6.17417 7.94394C5.82254 7.54208 5.625 6.99703 5.625 6.42871C5.625 5.86039 5.82254 5.31535 6.17417 4.91348C6.52581 4.51162 7.00272 4.28585 7.5 4.28585C7.99728 4.28585 8.47419 4.51162 8.82583 4.91348C9.17746 5.31535 9.375 5.86039 9.375 6.42871C9.375 6.99703 9.17746 7.54208 8.82583 7.94394C8.47419 8.3458 7.99728 8.57157 7.5 8.57157Z" fill="#22C55E"/>
</svg>
