<svg width="16" height="16" viewBox="0 0 16 16" fill="none" xmlns="http://www.w3.org/2000/svg">
<path d="M8.00022 11.5166L5.23355 13.1833C5.11133 13.2611 4.98355 13.2944 4.85022 13.2833C4.71689 13.2722 4.60022 13.2277 4.50022 13.15C4.40022 13.0722 4.32244 12.9751 4.26689 12.8586C4.21133 12.7422 4.20022 12.6115 4.23355 12.4666L4.96689 9.31663L2.51689 7.19997C2.40577 7.09997 2.33644 6.98597 2.30889 6.85797C2.28133 6.72997 2.28955 6.60508 2.33355 6.4833C2.37755 6.36152 2.44422 6.26152 2.53355 6.1833C2.62289 6.10508 2.74511 6.05508 2.90022 6.0333L6.13355 5.74997L7.38355 2.7833C7.43911 2.64997 7.52533 2.54997 7.64222 2.4833C7.75911 2.41663 7.87844 2.3833 8.00022 2.3833C8.122 2.3833 8.24133 2.41663 8.35822 2.4833C8.47511 2.54997 8.56133 2.64997 8.61689 2.7833L9.86689 5.74997L13.1002 6.0333C13.2558 6.05552 13.378 6.10552 13.4669 6.1833C13.5558 6.26108 13.6224 6.36108 13.6669 6.4833C13.7113 6.60552 13.7198 6.73063 13.6922 6.85863C13.6647 6.98663 13.5951 7.10041 13.4836 7.19997L11.0336 9.31663L11.7669 12.4666C11.8002 12.6111 11.7891 12.7417 11.7336 12.8586C11.678 12.9755 11.6002 13.0726 11.5002 13.15C11.4002 13.2273 11.2836 13.2717 11.1502 13.2833C11.0169 13.2949 10.8891 13.2615 10.7669 13.1833L8.00022 11.5166Z" fill="#FF9300"/>
</svg>
