<svg width="28" height="31" viewBox="0 0 28 31" fill="none" xmlns="http://www.w3.org/2000/svg">
<path d="M21.4743 11.6252C21.4743 10.4378 21.2696 9.26205 20.8721 8.16507C20.4745 7.06808 19.8917 6.07134 19.1571 5.23174C18.4224 4.39214 17.5503 3.72614 16.5904 3.27175C15.6305 2.81737 14.6018 2.5835 13.5628 2.5835C12.5239 2.5835 11.4951 2.81737 10.5352 3.27175C9.57538 3.72614 8.70323 4.39214 7.96858 5.23174C7.23393 6.07134 6.65118 7.06808 6.25359 8.16507C5.856 9.26205 5.65137 10.4378 5.65137 11.6252C5.65137 13.4167 6.11362 15.083 6.90025 16.4883H6.89121L13.5628 28.4168L20.2344 16.4883H20.2265C21.0413 15.0372 21.4744 13.3493 21.4743 11.6252ZM13.5628 15.5002C12.6636 15.5002 11.8012 15.0919 11.1653 14.3652C10.5294 13.6385 10.1722 12.6529 10.1722 11.6252C10.1722 10.5974 10.5294 9.61183 11.1653 8.88512C11.8012 8.15842 12.6636 7.75016 13.5628 7.75016C14.4621 7.75016 15.3245 8.15842 15.9604 8.88512C16.5962 9.61183 16.9534 10.5974 16.9534 11.6252C16.9534 12.6529 16.5962 13.6385 15.9604 14.3652C15.3245 15.0919 14.4621 15.5002 13.5628 15.5002Z" fill="#041133"/>
</svg>
