<svg width="20" height="20" viewBox="0 0 20 20" fill="none" xmlns="http://www.w3.org/2000/svg">
<path fill-rule="evenodd" clip-rule="evenodd" d="M15.7142 10.9525H10.9523V15.7144C10.9523 16.2383 10.5237 16.6668 9.99992 16.6668C9.47611 16.6668 9.04754 16.2383 9.04754 15.7144V10.9525H4.28563C3.76182 10.9525 3.33325 10.524 3.33325 10.0002C3.33325 9.47635 3.76182 9.04778 4.28563 9.04778H9.04754V4.28588C9.04754 3.76207 9.47611 3.3335 9.99992 3.3335C10.5237 3.3335 10.9523 3.76207 10.9523 4.28588V9.04778H15.7142C16.238 9.04778 16.6666 9.47635 16.6666 10.0002C16.6666 10.524 16.238 10.9525 15.7142 10.9525Z" fill="#3C4043"/>
</svg>
