<svg width="20" height="20" viewBox="0 0 20 20" fill="none" xmlns="http://www.w3.org/2000/svg">
<path d="M6.25008 3.33317C6.71032 3.33317 7.08342 2.96007 7.08342 2.49984C7.08342 2.0396 6.71032 1.6665 6.25008 1.6665H5.00008C3.15913 1.6665 1.66675 3.15889 1.66675 4.99984V14.9998C1.66675 16.8408 3.15913 18.3332 5.00008 18.3332H6.25008C6.71032 18.3332 7.08341 17.9601 7.08341 17.4998C7.08341 17.0396 6.71032 16.6665 6.25008 16.6665H5.00008C4.07961 16.6665 3.33341 15.9203 3.33341 14.9998L3.33342 4.99984C3.33342 4.07936 4.07961 3.33317 5.00008 3.33317H6.25008Z" fill="#EF4444"/>
<path d="M18.9227 10.5891C19.2481 10.2637 19.2481 9.73602 18.9227 9.41058L15.5893 6.07725C15.2639 5.75181 14.7363 5.75181 14.4108 6.07725C14.0854 6.40268 14.0854 6.93032 14.4108 7.25576L16.3216 9.1665L6.66675 9.1665C6.20651 9.1665 5.83341 9.5396 5.83341 9.99984C5.83341 10.4601 6.20651 10.8332 6.66675 10.8332L16.3216 10.8332L14.4108 12.7439C14.0854 13.0694 14.0854 13.597 14.4108 13.9224C14.7363 14.2479 15.2639 14.2479 15.5893 13.9224L18.9227 10.5891Z" fill="#EF4444"/>
</svg>
