<svg width="20" height="20" viewBox="0 0 20 20" fill="none" xmlns="http://www.w3.org/2000/svg">
<path d="M4.6875 1.25C3.82417 1.25 3.125 1.95 3.125 2.8125V17.1875C3.125 18.05 3.825 18.75 4.6875 18.75H15.3125C16.175 18.75 16.875 18.05 16.875 17.1875V10.625C16.875 9.7962 16.5458 9.00134 15.9597 8.41529C15.3737 7.82924 14.5788 7.5 13.75 7.5H12.1875C11.7731 7.5 11.3757 7.33538 11.0826 7.04235C10.7896 6.74933 10.625 6.3519 10.625 5.9375V4.375C10.625 3.5462 10.2958 2.75134 9.70971 2.16529C9.12366 1.57924 8.3288 1.25 7.5 1.25H4.6875Z" fill="#B1B5C0"/>
<path d="M10.8092 1.51318C11.498 2.30732 11.8765 3.32364 11.875 4.37485V5.93735C11.875 6.10985 12.015 6.24985 12.1875 6.24985H13.75C14.8012 6.24839 15.8176 6.62692 16.6117 7.31568C16.2451 5.92127 15.5146 4.64927 14.4951 3.62976C13.4756 2.61025 12.2036 1.87982 10.8092 1.51318Z" fill="#B1B5C0"/>
</svg>
