<svg width="20" height="20" viewBox="0 0 20 20" fill="none" xmlns="http://www.w3.org/2000/svg">
<path fill-rule="evenodd" clip-rule="evenodd" d="M15.714 10.9525H10.9521V15.7144C10.9521 16.2383 10.5235 16.6668 9.99967 16.6668C9.47586 16.6668 9.04729 16.2383 9.04729 15.7144V10.9525H4.28539C3.76158 10.9525 3.33301 10.524 3.33301 10.0002C3.33301 9.47635 3.76158 9.04778 4.28539 9.04778H9.04729V4.28588C9.04729 3.76207 9.47586 3.3335 9.99967 3.3335C10.5235 3.3335 10.9521 3.76207 10.9521 4.28588V9.04778H15.714C16.2378 9.04778 16.6663 9.47635 16.6663 10.0002C16.6663 10.524 16.2378 10.9525 15.714 10.9525Z" fill="#3C4043"/>
</svg>
