<svg width="16" height="16" viewBox="0 0 16 16" fill="none" xmlns="http://www.w3.org/2000/svg">
<path d="M8.00008 2.01073C8.18281 1.98544 8.375 2.0354 8.52254 2.16893L13.7891 6.93554C14.0528 7.17414 14.0742 7.58084 13.837 7.84569C13.598 8.11246 13.1875 8.13387 12.922 7.89354L12.4952 7.50682V13C12.495 13.552 12.0472 13.9999 11.4952 14H4.47372C3.92177 13.9998 3.47396 13.5519 3.47372 13V7.53514L3.07821 7.89354C2.81265 8.13377 2.40212 8.11243 2.16317 7.84569C1.92614 7.58089 1.94762 7.17412 2.21102 6.93554L7.4786 2.16893C7.62605 2.03553 7.81749 1.98555 8.00008 2.01073ZM4.76278 6.36913V12.7041H11.2061V6.33983L8.00008 3.43846L4.76278 6.36913Z" fill="#5F6368"/>
</svg>
