<svg width="22" height="22" viewBox="0 0 22 22" fill="none" xmlns="http://www.w3.org/2000/svg">
<path fill-rule="evenodd" clip-rule="evenodd" d="M10.625 18.5938C15.026 18.5938 18.5938 15.026 18.5938 10.625C18.5938 6.22398 15.026 2.65625 10.625 2.65625C6.22398 2.65625 2.65625 6.22398 2.65625 10.625C2.65625 15.026 6.22398 18.5938 10.625 18.5938ZM13.8793 9.50712C14.2399 9.17685 14.2645 8.61677 13.9342 8.25616C13.6039 7.89554 13.0439 7.87094 12.6832 8.20122L9.41421 11.1952L8.56676 10.419C8.20615 10.0888 7.64607 10.1134 7.3158 10.474C6.98553 10.8346 7.01012 11.3947 7.37074 11.7249L8.8162 13.0488C9.15463 13.3587 9.67379 13.3587 10.0122 13.0488L13.8793 9.50712Z" fill="#0F973D"/>
</svg>
