<svg width="16" height="16" viewBox="0 0 16 16" fill="none" xmlns="http://www.w3.org/2000/svg">
<path fill-rule="evenodd" clip-rule="evenodd" d="M8.1665 5C8.9915 5 9.6665 4.325 9.6665 3.5C9.6665 2.675 8.9915 2 8.1665 2C7.3415 2 6.6665 2.675 6.6665 3.5C6.6665 4.325 7.3415 5 8.1665 5ZM8.1665 6.5C7.3415 6.5 6.6665 7.175 6.6665 8C6.6665 8.825 7.3415 9.5 8.1665 9.5C8.9915 9.5 9.6665 8.825 9.6665 8C9.6665 7.175 8.9915 6.5 8.1665 6.5ZM8.1665 11C7.3415 11 6.6665 11.675 6.6665 12.5C6.6665 13.325 7.3415 14 8.1665 14C8.9915 14 9.6665 13.325 9.6665 12.5C9.6665 11.675 8.9915 11 8.1665 11Z" fill="#5F6368"/>
</svg>
