<svg width="16" height="16" viewBox="0 0 16 16" fill="none" xmlns="http://www.w3.org/2000/svg">
<path fill-rule="evenodd" clip-rule="evenodd" d="M6.26713 2.00195C7.03713 0.66862 8.96246 0.66862 9.73179 2.00195L14.6351 10.5006C15.4045 11.834 14.4418 13.5006 12.9025 13.5006H3.09646C1.55713 13.5006 0.595127 11.834 1.36446 10.5006L6.26646 2.00195H6.26713ZM7.99979 5.49995C8.1324 5.49995 8.25958 5.55263 8.35335 5.6464C8.44711 5.74017 8.49979 5.86734 8.49979 5.99995V8.49995C8.49979 8.63256 8.44711 8.75974 8.35335 8.85351C8.25958 8.94727 8.1324 8.99995 7.99979 8.99995C7.86719 8.99995 7.74001 8.94727 7.64624 8.85351C7.55247 8.75974 7.49979 8.63256 7.49979 8.49995V5.99995C7.49979 5.86734 7.55247 5.74017 7.64624 5.6464C7.74001 5.55263 7.86719 5.49995 7.99979 5.49995ZM7.99979 11C8.1324 11 8.25958 10.9473 8.35335 10.8535C8.44711 10.7597 8.49979 10.6326 8.49979 10.5C8.49979 10.3673 8.44711 10.2402 8.35335 10.1464C8.25958 10.0526 8.1324 9.99995 7.99979 9.99995C7.86719 9.99995 7.74001 10.0526 7.64624 10.1464C7.55247 10.2402 7.49979 10.3673 7.49979 10.5C7.49979 10.6326 7.55247 10.7597 7.64624 10.8535C7.74001 10.9473 7.86719 11 7.99979 11Z" fill="#DD900D"/>
</svg>
