<svg width="14" height="14" viewBox="0 0 14 14" fill="none" xmlns="http://www.w3.org/2000/svg">
<path d="M3.28125 0.875C2.67692 0.875 2.1875 1.365 2.1875 1.96875V12.0312C2.1875 12.635 2.6775 13.125 3.28125 13.125H10.7188C11.3225 13.125 11.8125 12.635 11.8125 12.0312V7.4375C11.8125 6.85734 11.582 6.30094 11.1718 5.8907C10.7616 5.48047 10.2052 5.25 9.625 5.25H8.53125C8.24117 5.25 7.96297 5.13477 7.75785 4.92965C7.55273 4.72453 7.4375 4.44633 7.4375 4.15625V3.0625C7.4375 2.48234 7.20703 1.92594 6.7968 1.5157C6.38656 1.10547 5.83016 0.875 5.25 0.875H3.28125Z" fill="#041133"/>
<path d="M7.56641 1.05957C8.04854 1.61547 8.31351 2.32689 8.31249 3.06274V4.15649C8.31249 4.27724 8.41049 4.37524 8.53124 4.37524H9.62499C10.3608 4.37422 11.0723 4.63919 11.6282 5.12132C11.3715 4.14523 10.8602 3.25483 10.1466 2.54117C9.4329 1.82751 8.54249 1.31622 7.56641 1.05957Z" fill="#041133"/>
</svg>
