<svg width="20" height="20" viewBox="0 0 20 20" fill="none" xmlns="http://www.w3.org/2000/svg">
<path d="M6.25033 3.33317C6.71056 3.33317 7.08366 2.96007 7.08366 2.49984C7.08366 2.0396 6.71056 1.6665 6.25033 1.6665H5.00033C3.15938 1.6665 1.66699 3.15889 1.66699 4.99984V14.9998C1.66699 16.8408 3.15938 18.3332 5.00033 18.3332H6.25033C6.71056 18.3332 7.08366 17.9601 7.08366 17.4998C7.08366 17.0396 6.71056 16.6665 6.25033 16.6665H5.00033C4.07985 16.6665 3.33366 15.9203 3.33366 14.9998L3.33366 4.99984C3.33366 4.07936 4.07985 3.33317 5.00033 3.33317H6.25033Z" fill="#EF4444"/>
<path d="M18.9229 10.5891C19.2484 10.2637 19.2484 9.73602 18.9229 9.41058L15.5896 6.07725C15.2641 5.75181 14.7365 5.75181 14.4111 6.07725C14.0856 6.40268 14.0856 6.93032 14.4111 7.25576L16.3218 9.1665L6.66699 9.1665C6.20675 9.1665 5.83366 9.5396 5.83366 9.99984C5.83366 10.4601 6.20675 10.8332 6.66699 10.8332L16.3218 10.8332L14.4111 12.7439C14.0856 13.0694 14.0856 13.597 14.4111 13.9224C14.7365 14.2479 15.2641 14.2479 15.5896 13.9224L18.9229 10.5891Z" fill="#EF4444"/>
</svg>
