<svg width="16" height="16" viewBox="0 0 16 16" fill="none" xmlns="http://www.w3.org/2000/svg">
<path d="M7.9996 2.01073C8.18232 1.98544 8.37451 2.0354 8.52206 2.16893L13.7887 6.93554C14.0523 7.17414 14.0737 7.58084 13.8365 7.84569C13.5975 8.11246 13.187 8.13387 12.9215 7.89354L12.4947 7.50682V13C12.4945 13.552 12.0467 13.9999 11.4947 14H4.47323C3.92128 13.9998 3.47347 13.5519 3.47323 13V7.53514L3.07772 7.89354C2.81216 8.13377 2.40163 8.11243 2.16268 7.84569C1.92565 7.58089 1.94713 7.17412 2.21053 6.93554L7.47811 2.16893C7.62557 2.03553 7.817 1.98555 7.9996 2.01073ZM4.76229 6.36913V12.7041H11.2057V6.33983L7.9996 3.43846L4.76229 6.36913Z" fill="#5F6368"/>
</svg>
