<svg width="20" height="20" viewBox="0 0 20 20" fill="none" xmlns="http://www.w3.org/2000/svg">
<path d="M9.99971 9.99414C9.83395 9.99414 9.67498 10.06 9.55777 10.1772C9.44056 10.2944 9.37471 10.4534 9.37471 10.6191V10.6241C9.37471 10.9691 9.65471 11.2491 9.99971 11.2491H10.0047C10.1705 11.2491 10.3294 11.1833 10.4467 11.0661C10.5639 10.9489 10.6297 10.7899 10.6297 10.6241V10.6191C10.6297 10.4534 10.5639 10.2944 10.4467 10.1772C10.3294 10.06 10.1705 9.99414 10.0047 9.99414H9.99971ZM9.99971 13.745C9.83395 13.745 9.67498 13.8108 9.55777 13.928C9.44056 14.0452 9.37471 14.2042 9.37471 14.37V14.3741C9.37471 14.7191 9.65388 14.9991 9.99971 14.9991H10.0039C10.1696 14.9991 10.3286 14.9333 10.4458 14.8161C10.563 14.6989 10.6289 14.5399 10.6289 14.3741V14.37C10.6289 14.2042 10.563 14.0452 10.4458 13.928C10.3286 13.8108 10.1696 13.745 10.0039 13.745H9.99971ZM7.49888 14.37C7.49888 14.2042 7.56473 14.0452 7.68194 13.928C7.79915 13.8108 7.95812 13.745 8.12388 13.745H8.12888C8.29464 13.745 8.45361 13.8108 8.57082 13.928C8.68803 14.0452 8.75388 14.2042 8.75388 14.37V14.375C8.75388 14.5407 8.68803 14.6997 8.57082 14.8169C8.45361 14.9341 8.29464 15 8.12888 15H8.12388C7.95812 15 7.79915 14.9341 7.68194 14.8169C7.56473 14.6997 7.49888 14.5407 7.49888 14.375V14.37ZM6.24888 13.745C6.08312 13.745 5.92415 13.8108 5.80694 13.928C5.68973 14.0452 5.62388 14.2042 5.62388 14.37V14.3741C5.62388 14.7191 5.90388 14.9991 6.24888 14.9991H6.25305C6.41881 14.9991 6.57778 14.9333 6.69499 14.8161C6.8122 14.6989 6.87805 14.5399 6.87805 14.3741V14.37C6.87805 14.2042 6.8122 14.0452 6.69499 13.928C6.57778 13.8108 6.41881 13.745 6.25305 13.745H6.24888ZM11.2489 12.4975C11.2489 12.3317 11.3147 12.1727 11.4319 12.0555C11.5491 11.9383 11.7081 11.8725 11.8739 11.8725H11.8789C12.0446 11.8725 12.2036 11.9383 12.3208 12.0555C12.438 12.1727 12.5039 12.3317 12.5039 12.4975V12.5016C12.5039 12.6674 12.438 12.8264 12.3208 12.9436C12.2036 13.0608 12.0446 13.1266 11.8789 13.1266H11.8739C11.7081 13.1266 11.5491 13.0608 11.4319 12.9436C11.3147 12.8264 11.2489 12.6674 11.2489 12.5016V12.4975ZM11.8747 13.745C11.709 13.745 11.55 13.8108 11.4328 13.928C11.3156 14.0452 11.2497 14.2042 11.2497 14.37V14.375C11.2497 14.72 11.5289 15 11.8747 15H11.8789C12.0446 15 12.2036 14.9341 12.3208 14.8169C12.438 14.6997 12.5039 14.5407 12.5039 14.375V14.37C12.5039 14.2042 12.438 14.0452 12.3208 13.928C12.2036 13.8108 12.0446 13.745 11.8789 13.745H11.8747ZM13.1247 12.4958C13.1247 12.33 13.1906 12.1711 13.3078 12.0539C13.425 11.9367 13.584 11.8708 13.7497 11.8708H13.7539C13.9196 11.8708 14.0786 11.9367 14.1958 12.0539C14.313 12.1711 14.3789 12.33 14.3789 12.4958V12.5008C14.3789 12.6666 14.313 12.8255 14.1958 12.9427C14.0786 13.06 13.9196 13.1258 13.7539 13.1258H13.7497C13.584 13.1258 13.425 13.06 13.3078 12.9427C13.1906 12.8255 13.1247 12.6666 13.1247 12.5008V12.4958ZM11.248 10.6191C11.248 10.4534 11.3139 10.2944 11.4311 10.1772C11.5483 10.06 11.7073 9.99414 11.873 9.99414H13.748C13.9138 9.99414 14.0728 10.06 14.19 10.1772C14.3072 10.2944 14.373 10.4534 14.373 10.6191C14.373 10.7849 14.3072 10.9439 14.19 11.0611C14.0728 11.1783 13.9138 11.2441 13.748 11.2441H11.873C11.7073 11.2441 11.5483 11.1783 11.4311 11.0611C11.3139 10.9439 11.248 10.7849 11.248 10.6191ZM5.62305 12.4941C5.62305 12.3284 5.68889 12.1694 5.80611 12.0522C5.92332 11.935 6.08229 11.8691 6.24805 11.8691H9.99805C10.1638 11.8691 10.3228 11.935 10.44 12.0522C10.5572 12.1694 10.623 12.3284 10.623 12.4941C10.623 12.6599 10.5572 12.8189 10.44 12.9361C10.3228 13.0533 10.1638 13.1191 9.99805 13.1191H6.24805C6.08229 13.1191 5.92332 13.0533 5.80611 12.9361C5.68889 12.8189 5.62305 12.6599 5.62305 12.4941Z" fill="#6B7280"/>
<path fill-rule="evenodd" clip-rule="evenodd" d="M14.9997 2.49414C14.9997 2.32838 14.9339 2.16941 14.8167 2.0522C14.6994 1.93499 14.5405 1.86914 14.3747 1.86914C14.209 1.86914 14.05 1.93499 13.9328 2.0522C13.8156 2.16941 13.7497 2.32838 13.7497 2.49414V3.74414H6.24971V2.49497C6.24971 2.32921 6.18387 2.17024 6.06666 2.05303C5.94945 1.93582 5.79047 1.86997 5.62471 1.86997C5.45895 1.86997 5.29998 1.93582 5.18277 2.05303C5.06556 2.17024 4.99971 2.32921 4.99971 2.49497V3.74247H4.37305C3.71001 3.74247 3.07412 4.00587 2.60528 4.47471C2.13644 4.94355 1.87305 5.57943 1.87305 6.24247V15.6191C1.87305 16.2822 2.13644 16.9181 2.60528 17.3869C3.07412 17.8557 3.71001 18.1191 4.37305 18.1191H15.623C16.2861 18.1191 16.922 17.8557 17.3908 17.3869C17.8597 16.9181 18.123 16.2822 18.123 15.6191V6.24331C18.123 5.58027 17.8597 4.94438 17.3908 4.47554C16.922 4.0067 16.2861 3.74331 15.623 3.74331H14.9997V2.49414ZM3.12305 15.6191V9.36914C3.12305 9.03762 3.25474 8.71968 3.48916 8.48526C3.72358 8.25084 4.04153 8.11914 4.37305 8.11914H15.623C15.9546 8.11914 16.2725 8.25084 16.5069 8.48526C16.7414 8.71968 16.873 9.03762 16.873 9.36914V15.6191C16.873 15.9507 16.7414 16.2686 16.5069 16.503C16.2725 16.7374 15.9546 16.8691 15.623 16.8691H4.37305C4.04153 16.8691 3.72358 16.7374 3.48916 16.503C3.25474 16.2686 3.12305 15.9507 3.12305 15.6191Z" fill="#6B7280"/>
</svg>
