<svg width="20" height="20" viewBox="0 0 20 20" fill="none" xmlns="http://www.w3.org/2000/svg">
<path d="M11.25 3.33301C11.25 4.02336 10.6904 4.58301 10 4.58301C9.30964 4.58301 8.75 4.02336 8.75 3.33301C8.75 2.64265 9.30964 2.08301 10 2.08301C10.6904 2.08301 11.25 2.64265 11.25 3.33301Z" fill="black"/>
<path d="M11.25 9.99967C11.25 10.69 10.6904 11.2497 10 11.2497C9.30964 11.2497 8.75 10.69 8.75 9.99967C8.75 9.30932 9.30964 8.74967 10 8.74967C10.6904 8.74967 11.25 9.30932 11.25 9.99967Z" fill="black"/>
<path d="M10 17.9163C10.6904 17.9163 11.25 17.3567 11.25 16.6663C11.25 15.976 10.6904 15.4163 10 15.4163C9.30964 15.4163 8.75 15.976 8.75 16.6663C8.75 17.3567 9.30964 17.9163 10 17.9163Z" fill="black"/>
</svg>
