<svg width="14" height="14" viewBox="0 0 14 14" fill="none" xmlns="http://www.w3.org/2000/svg">
<path fill-rule="evenodd" clip-rule="evenodd" d="M6.125 2.18735C5.60792 2.18735 5.0959 2.2892 4.61818 2.48708C4.14046 2.68496 3.7064 2.97499 3.34077 3.34062C2.97514 3.70625 2.6851 4.14032 2.48722 4.61804C2.28935 5.09576 2.1875 5.60777 2.1875 6.12485C2.1875 6.64193 2.28935 7.15395 2.48722 7.63167C2.6851 8.10939 2.97514 8.54346 3.34077 8.90909C3.7064 9.27472 4.14046 9.56475 4.61818 9.76263C5.0959 9.96051 5.60792 10.0624 6.125 10.0624C7.16929 10.0624 8.17081 9.64751 8.90923 8.90909C9.64766 8.17066 10.0625 7.16914 10.0625 6.12485C10.0625 5.08056 9.64766 4.07905 8.90923 3.34062C8.17081 2.6022 7.16929 2.18735 6.125 2.18735ZM1.3125 6.12485C1.3126 5.35199 1.49884 4.59053 1.85546 3.90486C2.21208 3.2192 2.72859 2.62951 3.3613 2.18567C3.99402 1.74184 4.72432 1.45692 5.49043 1.35501C6.25654 1.2531 7.03593 1.3372 7.76266 1.6002C8.4894 1.8632 9.1421 2.29736 9.66557 2.86596C10.189 3.43455 10.5679 4.12086 10.77 4.86681C10.9721 5.61277 10.9916 6.39644 10.8269 7.15153C10.6621 7.90662 10.3179 8.61092 9.82333 9.20485L12.5592 11.9407C12.6022 11.9807 12.6366 12.029 12.6605 12.0827C12.6845 12.1364 12.6973 12.1943 12.6983 12.253C12.6994 12.3118 12.6886 12.3701 12.6666 12.4246C12.6446 12.4791 12.6118 12.5286 12.5703 12.5701C12.5287 12.6117 12.4792 12.6444 12.4248 12.6664C12.3703 12.6884 12.3119 12.6992 12.2532 12.6982C12.1945 12.6972 12.1365 12.6843 12.0829 12.6604C12.0292 12.6365 11.9809 12.602 11.9408 12.559L9.205 9.82319C8.50221 10.4086 7.64716 10.7815 6.74002 10.8984C5.83288 11.0153 4.91121 10.8713 4.08299 10.4832C3.25477 10.0951 2.55429 9.479 2.06362 8.70712C1.57295 7.93523 1.3124 7.0395 1.3125 6.12485Z" fill="black"/>
</svg>
