<svg width="20" height="20" viewBox="0 0 20 20" fill="none" xmlns="http://www.w3.org/2000/svg">
<path d="M11.25 3.3335C11.25 4.02385 10.6904 4.5835 10 4.5835C9.30964 4.5835 8.75 4.02385 8.75 3.3335C8.75 2.64314 9.30964 2.0835 10 2.0835C10.6904 2.0835 11.25 2.64314 11.25 3.3335Z" fill="black"/>
<path d="M11.25 10.0002C11.25 10.6905 10.6904 11.2502 10 11.2502C9.30964 11.2502 8.75 10.6905 8.75 10.0002C8.75 9.30981 9.30964 8.75016 10 8.75016C10.6904 8.75016 11.25 9.30981 11.25 10.0002Z" fill="black"/>
<path d="M10 17.9168C10.6904 17.9168 11.25 17.3572 11.25 16.6668C11.25 15.9765 10.6904 15.4168 10 15.4168C9.30964 15.4168 8.75 15.9765 8.75 16.6668C8.75 17.3572 9.30964 17.9168 10 17.9168Z" fill="black"/>
</svg>
