<svg width="20" height="20" viewBox="0 0 20 20" fill="none" xmlns="http://www.w3.org/2000/svg">
<path fill-rule="evenodd" clip-rule="evenodd" d="M15.7144 10.9525H10.9525V15.7144C10.9525 16.2383 10.524 16.6668 10.0002 16.6668C9.47635 16.6668 9.04778 16.2383 9.04778 15.7144V10.9525H4.28588C3.76207 10.9525 3.3335 10.524 3.3335 10.0002C3.3335 9.47635 3.76207 9.04778 4.28588 9.04778H9.04778V4.28588C9.04778 3.76207 9.47635 3.3335 10.0002 3.3335C10.524 3.3335 10.9525 3.76207 10.9525 4.28588V9.04778H15.7144C16.2383 9.04778 16.6668 9.47635 16.6668 10.0002C16.6668 10.524 16.2383 10.9525 15.7144 10.9525Z" fill="#3C4043"/>
</svg>
