<svg width="20" height="20" viewBox="0 0 20 20" fill="none" xmlns="http://www.w3.org/2000/svg">
<path d="M4.6875 1.25C3.82417 1.25 3.125 1.95 3.125 2.8125V17.1875C3.125 18.05 3.825 18.75 4.6875 18.75H15.3125C16.175 18.75 16.875 18.05 16.875 17.1875V10.625C16.875 9.7962 16.5458 9.00134 15.9597 8.41529C15.3737 7.82924 14.5788 7.5 13.75 7.5H12.1875C11.7731 7.5 11.3757 7.33538 11.0826 7.04235C10.7896 6.74933 10.625 6.3519 10.625 5.9375V4.375C10.625 3.5462 10.2958 2.75134 9.70971 2.16529C9.12366 1.57924 8.3288 1.25 7.5 1.25H4.6875Z" fill="#041133"/>
<path d="M10.8091 1.51367C11.4979 2.30781 11.8764 3.32413 11.875 4.37534V5.93784C11.875 6.11034 12.015 6.25034 12.1875 6.25034H13.75C14.8012 6.24888 15.8175 6.62741 16.6116 7.31617C16.245 5.92176 15.5146 4.64975 14.4951 3.63024C13.4756 2.61073 12.2036 1.88031 10.8091 1.51367Z" fill="#041133"/>
</svg>
