<svg width="14" height="14" viewBox="0 0 14 14" fill="none" xmlns="http://www.w3.org/2000/svg">
<path fill-rule="evenodd" clip-rule="evenodd" d="M6.125 2.18784C5.60792 2.18784 5.0959 2.28969 4.61818 2.48757C4.14046 2.68544 3.7064 2.97548 3.34077 3.34111C2.97514 3.70674 2.6851 4.14081 2.48722 4.61853C2.28935 5.09625 2.1875 5.60826 2.1875 6.12534C2.1875 6.64242 2.28935 7.15444 2.48722 7.63216C2.6851 8.10988 2.97514 8.54395 3.34077 8.90958C3.7064 9.27521 4.14046 9.56524 4.61818 9.76312C5.0959 9.961 5.60792 10.0628 6.125 10.0628C7.16929 10.0628 8.17081 9.648 8.90923 8.90958C9.64766 8.17115 10.0625 7.16963 10.0625 6.12534C10.0625 5.08105 9.64766 4.07953 8.90923 3.34111C8.17081 2.60268 7.16929 2.18784 6.125 2.18784ZM1.3125 6.12534C1.3126 5.35248 1.49884 4.59101 1.85546 3.90535C2.21208 3.21969 2.72859 2.63 3.3613 2.18616C3.99402 1.74233 4.72432 1.45741 5.49043 1.3555C6.25654 1.25359 7.03593 1.33769 7.76266 1.60069C8.4894 1.86369 9.1421 2.29785 9.66557 2.86645C10.189 3.43504 10.5679 4.12134 10.77 4.8673C10.9721 5.61326 10.9916 6.39693 10.8269 7.15202C10.6621 7.90711 10.3179 8.61141 9.82333 9.20534L12.5592 11.9412C12.6022 11.9812 12.6366 12.0295 12.6605 12.0832C12.6845 12.1369 12.6973 12.1948 12.6983 12.2535C12.6994 12.3123 12.6886 12.3706 12.6666 12.4251C12.6446 12.4796 12.6118 12.5291 12.5703 12.5706C12.5287 12.6122 12.4792 12.6449 12.4248 12.6669C12.3703 12.6889 12.3119 12.6997 12.2532 12.6987C12.1945 12.6977 12.1365 12.6848 12.0829 12.6609C12.0292 12.637 11.9809 12.6025 11.9408 12.5595L9.205 9.82368C8.50221 10.409 7.64716 10.782 6.74002 10.8989C5.83288 11.0158 4.91121 10.8718 4.08299 10.4837C3.25477 10.0956 2.55429 9.47949 2.06362 8.7076C1.57295 7.93572 1.3124 7.03998 1.3125 6.12534Z" fill="black"/>
</svg>
