<svg width="20" height="20" viewBox="0 0 20 20" fill="none" xmlns="http://www.w3.org/2000/svg">
<path d="M6.24984 3.33366C6.71008 3.33366 7.08317 2.96056 7.08317 2.50033C7.08317 2.04009 6.71008 1.66699 6.24984 1.66699H4.99984C3.15889 1.66699 1.6665 3.15938 1.6665 5.00033V15.0003C1.6665 16.8413 3.15889 18.3337 4.99984 18.3337H6.24984C6.71007 18.3337 7.08317 17.9606 7.08317 17.5003C7.08317 17.0401 6.71007 16.667 6.24984 16.667H4.99984C4.07936 16.667 3.33317 15.9208 3.33317 15.0003L3.33317 5.00033C3.33317 4.07985 4.07936 3.33366 4.99984 3.33366H6.24984Z" fill="#EF4444"/>
<path d="M18.9224 10.5896C19.2479 10.2641 19.2479 9.73651 18.9224 9.41107L15.5891 6.07774C15.2637 5.7523 14.736 5.7523 14.4106 6.07774C14.0851 6.40317 14.0851 6.93081 14.4106 7.25625L16.3213 9.16699L6.6665 9.16699C6.20627 9.16699 5.83317 9.54009 5.83317 10.0003C5.83317 10.4606 6.20627 10.8337 6.6665 10.8337L16.3213 10.8337L14.4106 12.7444C14.0851 13.0698 14.0851 13.5975 14.4106 13.9229C14.736 14.2484 15.2637 14.2484 15.5891 13.9229L18.9224 10.5896Z" fill="#EF4444"/>
</svg>
