<svg width="20" height="20" viewBox="0 0 20 20" fill="none" xmlns="http://www.w3.org/2000/svg">
<path d="M10.0002 9.99414C9.83444 9.99414 9.67547 10.06 9.55826 10.1772C9.44105 10.2944 9.3752 10.4534 9.3752 10.6191V10.6241C9.3752 10.9691 9.6552 11.2491 10.0002 11.2491H10.0052C10.171 11.2491 10.3299 11.1833 10.4471 11.0661C10.5644 10.9489 10.6302 10.7899 10.6302 10.6241V10.6191C10.6302 10.4534 10.5644 10.2944 10.4471 10.1772C10.3299 10.06 10.171 9.99414 10.0052 9.99414H10.0002ZM10.0002 13.745C9.83444 13.745 9.67547 13.8108 9.55826 13.928C9.44105 14.0452 9.3752 14.2042 9.3752 14.37V14.3741C9.3752 14.7191 9.65437 14.9991 10.0002 14.9991H10.0044C10.1701 14.9991 10.3291 14.9333 10.4463 14.8161C10.5635 14.6989 10.6294 14.5399 10.6294 14.3741V14.37C10.6294 14.2042 10.5635 14.0452 10.4463 13.928C10.3291 13.8108 10.1701 13.745 10.0044 13.745H10.0002ZM7.49937 14.37C7.49937 14.2042 7.56522 14.0452 7.68243 13.928C7.79964 13.8108 7.95861 13.745 8.12437 13.745H8.12937C8.29513 13.745 8.4541 13.8108 8.57131 13.928C8.68852 14.0452 8.75437 14.2042 8.75437 14.37V14.375C8.75437 14.5407 8.68852 14.6997 8.57131 14.8169C8.4541 14.9341 8.29513 15 8.12937 15H8.12437C7.95861 15 7.79964 14.9341 7.68243 14.8169C7.56522 14.6997 7.49937 14.5407 7.49937 14.375V14.37ZM6.24937 13.745C6.08361 13.745 5.92464 13.8108 5.80743 13.928C5.69022 14.0452 5.62437 14.2042 5.62437 14.37V14.3741C5.62437 14.7191 5.90437 14.9991 6.24937 14.9991H6.25354C6.4193 14.9991 6.57827 14.9333 6.69548 14.8161C6.81269 14.6989 6.87853 14.5399 6.87853 14.3741V14.37C6.87853 14.2042 6.81269 14.0452 6.69548 13.928C6.57827 13.8108 6.4193 13.745 6.25354 13.745H6.24937ZM11.2494 12.4975C11.2494 12.3317 11.3152 12.1727 11.4324 12.0555C11.5496 11.9383 11.7086 11.8725 11.8744 11.8725H11.8794C12.0451 11.8725 12.2041 11.9383 12.3213 12.0555C12.4385 12.1727 12.5044 12.3317 12.5044 12.4975V12.5016C12.5044 12.6674 12.4385 12.8264 12.3213 12.9436C12.2041 13.0608 12.0451 13.1266 11.8794 13.1266H11.8744C11.7086 13.1266 11.5496 13.0608 11.4324 12.9436C11.3152 12.8264 11.2494 12.6674 11.2494 12.5016V12.4975ZM11.8752 13.745C11.7094 13.745 11.5505 13.8108 11.4333 13.928C11.3161 14.0452 11.2502 14.2042 11.2502 14.37V14.375C11.2502 14.72 11.5294 15 11.8752 15H11.8794C12.0451 15 12.2041 14.9341 12.3213 14.8169C12.4385 14.6997 12.5044 14.5407 12.5044 14.375V14.37C12.5044 14.2042 12.4385 14.0452 12.3213 13.928C12.2041 13.8108 12.0451 13.745 11.8794 13.745H11.8752ZM13.1252 12.4958C13.1252 12.33 13.1911 12.1711 13.3083 12.0539C13.4255 11.9367 13.5844 11.8708 13.7502 11.8708H13.7544C13.9201 11.8708 14.0791 11.9367 14.1963 12.0539C14.3135 12.1711 14.3794 12.33 14.3794 12.4958V12.5008C14.3794 12.6666 14.3135 12.8255 14.1963 12.9427C14.0791 13.06 13.9201 13.1258 13.7544 13.1258H13.7502C13.5844 13.1258 13.4255 13.06 13.3083 12.9427C13.1911 12.8255 13.1252 12.6666 13.1252 12.5008V12.4958ZM11.2485 10.6191C11.2485 10.4534 11.3144 10.2944 11.4316 10.1772C11.5488 10.06 11.7078 9.99414 11.8735 9.99414H13.7485C13.9143 9.99414 14.0733 10.06 14.1905 10.1772C14.3077 10.2944 14.3735 10.4534 14.3735 10.6191C14.3735 10.7849 14.3077 10.9439 14.1905 11.0611C14.0733 11.1783 13.9143 11.2441 13.7485 11.2441H11.8735C11.7078 11.2441 11.5488 11.1783 11.4316 11.0611C11.3144 10.9439 11.2485 10.7849 11.2485 10.6191ZM5.62354 12.4941C5.62354 12.3284 5.68938 12.1694 5.80659 12.0522C5.9238 11.935 6.08277 11.8691 6.24854 11.8691H9.99854C10.1643 11.8691 10.3233 11.935 10.4405 12.0522C10.5577 12.1694 10.6235 12.3284 10.6235 12.4941C10.6235 12.6599 10.5577 12.8189 10.4405 12.9361C10.3233 13.0533 10.1643 13.1191 9.99854 13.1191H6.24854C6.08277 13.1191 5.9238 13.0533 5.80659 12.9361C5.68938 12.8189 5.62354 12.6599 5.62354 12.4941Z" fill="#6B7280"/>
<path fill-rule="evenodd" clip-rule="evenodd" d="M15.0002 2.49414C15.0002 2.32838 14.9344 2.16941 14.8171 2.0522C14.6999 1.93499 14.541 1.86914 14.3752 1.86914C14.2094 1.86914 14.0505 1.93499 13.9333 2.0522C13.816 2.16941 13.7502 2.32838 13.7502 2.49414V3.74414H6.2502V2.49497C6.2502 2.32921 6.18435 2.17024 6.06714 2.05303C5.94993 1.93582 5.79096 1.86997 5.6252 1.86997C5.45944 1.86997 5.30047 1.93582 5.18326 2.05303C5.06605 2.17024 5.0002 2.32921 5.0002 2.49497V3.74247H4.37354C3.71049 3.74247 3.07461 4.00587 2.60577 4.47471C2.13693 4.94355 1.87354 5.57943 1.87354 6.24247V15.6191C1.87354 16.2822 2.13693 16.9181 2.60577 17.3869C3.07461 17.8557 3.71049 18.1191 4.37354 18.1191H15.6235C16.2866 18.1191 16.9225 17.8557 17.3913 17.3869C17.8601 16.9181 18.1235 16.2822 18.1235 15.6191V6.24331C18.1235 5.58027 17.8601 4.94438 17.3913 4.47554C16.9225 4.0067 16.2866 3.74331 15.6235 3.74331H15.0002V2.49414ZM3.12354 15.6191V9.36914C3.12354 9.03762 3.25523 8.71968 3.48965 8.48526C3.72407 8.25084 4.04201 8.11914 4.37354 8.11914H15.6235C15.9551 8.11914 16.273 8.25084 16.5074 8.48526C16.7418 8.71968 16.8735 9.03762 16.8735 9.36914V15.6191C16.8735 15.9507 16.7418 16.2686 16.5074 16.503C16.273 16.7374 15.9551 16.8691 15.6235 16.8691H4.37354C4.04201 16.8691 3.72407 16.7374 3.48965 16.503C3.25523 16.2686 3.12354 15.9507 3.12354 15.6191Z" fill="#6B7280"/>
</svg>
