<svg width="20" height="20" viewBox="0 0 20 20" fill="none" xmlns="http://www.w3.org/2000/svg">
<path fill-rule="evenodd" clip-rule="evenodd" d="M15.7142 10.9521H10.9523V15.714C10.9523 16.2378 10.5237 16.6663 9.99992 16.6663C9.47611 16.6663 9.04754 16.2378 9.04754 15.714V10.9521H4.28563C3.76182 10.9521 3.33325 10.5235 3.33325 9.99967C3.33325 9.47586 3.76182 9.04729 4.28563 9.04729H9.04754V4.28539C9.04754 3.76158 9.47611 3.33301 9.99992 3.33301C10.5237 3.33301 10.9523 3.76158 10.9523 4.28539V9.04729H15.7142C16.238 9.04729 16.6666 9.47586 16.6666 9.99967C16.6666 10.5235 16.238 10.9521 15.7142 10.9521Z" fill="#3C4043"/>
</svg>
