<svg width="20" height="20" viewBox="0 0 20 20" fill="none" xmlns="http://www.w3.org/2000/svg">
<path fill-rule="evenodd" clip-rule="evenodd" d="M15.7144 10.9521H10.9525V15.714C10.9525 16.2378 10.524 16.6663 10.0002 16.6663C9.47635 16.6663 9.04778 16.2378 9.04778 15.714V10.9521H4.28588C3.76207 10.9521 3.3335 10.5235 3.3335 9.99967C3.3335 9.47586 3.76207 9.04729 4.28588 9.04729H9.04778V4.28539C9.04778 3.76158 9.47635 3.33301 10.0002 3.33301C10.524 3.33301 10.9525 3.76158 10.9525 4.28539V9.04729H15.7144C16.2383 9.04729 16.6668 9.47586 16.6668 9.99967C16.6668 10.5235 16.2383 10.9521 15.7144 10.9521Z" fill="#3C4043"/>
</svg>
