<svg width="16" height="16" viewBox="0 0 16 16" fill="none" xmlns="http://www.w3.org/2000/svg">
<path fill-rule="evenodd" clip-rule="evenodd" d="M8.16699 5C8.99199 5 9.66699 4.325 9.66699 3.5C9.66699 2.675 8.99199 2 8.16699 2C7.34199 2 6.66699 2.675 6.66699 3.5C6.66699 4.325 7.34199 5 8.16699 5ZM8.16699 6.5C7.34199 6.5 6.66699 7.175 6.66699 8C6.66699 8.825 7.34199 9.5 8.16699 9.5C8.99199 9.5 9.66699 8.825 9.66699 8C9.66699 7.175 8.99199 6.5 8.16699 6.5ZM8.16699 11C7.34199 11 6.66699 11.675 6.66699 12.5C6.66699 13.325 7.34199 14 8.16699 14C8.99199 14 9.66699 13.325 9.66699 12.5C9.66699 11.675 8.99199 11 8.16699 11Z" fill="#5F6368"/>
</svg>
