<svg width="16" height="16" viewBox="0 0 16 16" fill="none" xmlns="http://www.w3.org/2000/svg">
<path d="M7.9996 2.01122C8.18232 1.98593 8.37451 2.03589 8.52206 2.16942L13.7887 6.93602C14.0523 7.17463 14.0737 7.58133 13.8365 7.84618C13.5975 8.11295 13.187 8.13436 12.9215 7.89403L12.4947 7.50731V13.0005C12.4945 13.5525 12.0467 14.0004 11.4947 14.0005H4.47323C3.92128 14.0003 3.47347 13.5524 3.47323 13.0005V7.53563L3.07772 7.89403C2.81216 8.13426 2.40163 8.11292 2.16268 7.84618C1.92565 7.58138 1.94713 7.1746 2.21053 6.93602L7.47811 2.16942C7.62557 2.03602 7.817 1.98603 7.9996 2.01122ZM4.76229 6.36962V12.7046H11.2057V6.34032L7.9996 3.43895L4.76229 6.36962Z" fill="#5F6368"/>
</svg>
