<svg width="16" height="16" viewBox="0 0 16 16" fill="none" xmlns="http://www.w3.org/2000/svg">
<path d="M8.00008 2.01122C8.18281 1.98593 8.375 2.03589 8.52254 2.16942L13.7891 6.93602C14.0528 7.17463 14.0742 7.58133 13.837 7.84618C13.598 8.11295 13.1875 8.13436 12.922 7.89403L12.4952 7.50731V13.0005C12.495 13.5525 12.0472 14.0004 11.4952 14.0005H4.47372C3.92177 14.0003 3.47396 13.5524 3.47372 13.0005V7.53563L3.07821 7.89403C2.81265 8.13426 2.40212 8.11292 2.16317 7.84618C1.92614 7.58138 1.94762 7.1746 2.21102 6.93602L7.4786 2.16942C7.62605 2.03602 7.81749 1.98603 8.00008 2.01122ZM4.76278 6.36962V12.7046H11.2061V6.34032L8.00008 3.43895L4.76278 6.36962Z" fill="#5F6368"/>
</svg>
