<svg width="20" height="20" viewBox="0 0 20 20" fill="none" xmlns="http://www.w3.org/2000/svg">
<path fill-rule="evenodd" clip-rule="evenodd" d="M15.714 10.9521H10.9521V15.714C10.9521 16.2378 10.5235 16.6663 9.99967 16.6663C9.47586 16.6663 9.04729 16.2378 9.04729 15.714V10.9521H4.28539C3.76158 10.9521 3.33301 10.5235 3.33301 9.99967C3.33301 9.47586 3.76158 9.04729 4.28539 9.04729H9.04729V4.28539C9.04729 3.76158 9.47586 3.33301 9.99967 3.33301C10.5235 3.33301 10.9521 3.76158 10.9521 4.28539V9.04729H15.714C16.2378 9.04729 16.6663 9.47586 16.6663 9.99967C16.6663 10.5235 16.2378 10.9521 15.714 10.9521Z" fill="#3C4043"/>
</svg>
