<svg width="16" height="16" viewBox="0 0 16 16" fill="none" xmlns="http://www.w3.org/2000/svg">
<path d="M8 10C8.53043 10 9.03914 9.78929 9.41421 9.41421C9.78929 9.03914 10 8.53043 10 8C10 7.46957 9.78929 6.96086 9.41421 6.58579C9.03914 6.21071 8.53043 6 8 6C7.46957 6 6.96086 6.21071 6.58579 6.58579C6.21071 6.96086 6 7.46957 6 8C6 8.53043 6.21071 9.03914 6.58579 9.41421C6.96086 9.78929 7.46957 10 8 10Z" fill="#6B7280"/>
<path fill-rule="evenodd" clip-rule="evenodd" d="M0.881969 7.63133C1.87397 4.65067 4.6853 2.5 8.00064 2.5C11.314 2.5 14.124 4.64867 15.1173 7.62667C15.1973 7.868 15.1973 8.128 15.1173 8.36867C14.126 11.3493 11.314 13.5 7.9993 13.5C4.68597 13.5 1.8753 11.3513 0.882636 8.37333C0.802468 8.1325 0.802468 7.87217 0.882636 7.63133H0.881969ZM11.5 8C11.5 8.92826 11.1312 9.8185 10.4748 10.4749C9.81847 11.1313 8.92823 11.5 7.99997 11.5C7.07171 11.5 6.18147 11.1313 5.5251 10.4749C4.86872 9.8185 4.49997 8.92826 4.49997 8C4.49997 7.07174 4.86872 6.1815 5.5251 5.52513C6.18147 4.86875 7.07171 4.5 7.99997 4.5C8.92823 4.5 9.81847 4.86875 10.4748 5.52513C11.1312 6.1815 11.5 7.07174 11.5 8Z" fill="#6B7280"/>
</svg>
