<svg width="20" height="20" viewBox="0 0 20 20" fill="none" xmlns="http://www.w3.org/2000/svg">
<path d="M9.99996 9.99414C9.8342 9.99414 9.67523 10.06 9.55802 10.1772C9.44081 10.2944 9.37496 10.4534 9.37496 10.6191V10.6241C9.37496 10.9691 9.65496 11.2491 9.99996 11.2491H10.005C10.1707 11.2491 10.3297 11.1833 10.4469 11.0661C10.5641 10.9489 10.63 10.7899 10.63 10.6241V10.6191C10.63 10.4534 10.5641 10.2944 10.4469 10.1772C10.3297 10.06 10.1707 9.99414 10.005 9.99414H9.99996ZM9.99996 13.745C9.8342 13.745 9.67523 13.8108 9.55802 13.928C9.44081 14.0452 9.37496 14.2042 9.37496 14.37V14.3741C9.37496 14.7191 9.65412 14.9991 9.99996 14.9991H10.0041C10.1699 14.9991 10.3289 14.9333 10.4461 14.8161C10.5633 14.6989 10.6291 14.5399 10.6291 14.3741V14.37C10.6291 14.2042 10.5633 14.0452 10.4461 13.928C10.3289 13.8108 10.1699 13.745 10.0041 13.745H9.99996ZM7.49912 14.37C7.49912 14.2042 7.56497 14.0452 7.68218 13.928C7.79939 13.8108 7.95836 13.745 8.12412 13.745H8.12912C8.29488 13.745 8.45386 13.8108 8.57107 13.928C8.68828 14.0452 8.75412 14.2042 8.75412 14.37V14.375C8.75412 14.5407 8.68828 14.6997 8.57107 14.8169C8.45386 14.9341 8.29488 15 8.12912 15H8.12412C7.95836 15 7.79939 14.9341 7.68218 14.8169C7.56497 14.6997 7.49912 14.5407 7.49912 14.375V14.37ZM6.24912 13.745C6.08336 13.745 5.92439 13.8108 5.80718 13.928C5.68997 14.0452 5.62412 14.2042 5.62412 14.37V14.3741C5.62412 14.7191 5.90412 14.9991 6.24912 14.9991H6.25329C6.41905 14.9991 6.57802 14.9333 6.69523 14.8161C6.81244 14.6989 6.87829 14.5399 6.87829 14.3741V14.37C6.87829 14.2042 6.81244 14.0452 6.69523 13.928C6.57802 13.8108 6.41905 13.745 6.25329 13.745H6.24912ZM11.2491 12.4975C11.2491 12.3317 11.315 12.1727 11.4322 12.0555C11.5494 11.9383 11.7084 11.8725 11.8741 11.8725H11.8791C12.0449 11.8725 12.2039 11.9383 12.3211 12.0555C12.4383 12.1727 12.5041 12.3317 12.5041 12.4975V12.5016C12.5041 12.6674 12.4383 12.8264 12.3211 12.9436C12.2039 13.0608 12.0449 13.1266 11.8791 13.1266H11.8741C11.7084 13.1266 11.5494 13.0608 11.4322 12.9436C11.315 12.8264 11.2491 12.6674 11.2491 12.5016V12.4975ZM11.875 13.745C11.7092 13.745 11.5502 13.8108 11.433 13.928C11.3158 14.0452 11.25 14.2042 11.25 14.37V14.375C11.25 14.72 11.5291 15 11.875 15H11.8791C12.0449 15 12.2039 14.9341 12.3211 14.8169C12.4383 14.6997 12.5041 14.5407 12.5041 14.375V14.37C12.5041 14.2042 12.4383 14.0452 12.3211 13.928C12.2039 13.8108 12.0449 13.745 11.8791 13.745H11.875ZM13.125 12.4958C13.125 12.33 13.1908 12.1711 13.308 12.0539C13.4252 11.9367 13.5842 11.8708 13.75 11.8708H13.7541C13.9199 11.8708 14.0789 11.9367 14.1961 12.0539C14.3133 12.1711 14.3791 12.33 14.3791 12.4958V12.5008C14.3791 12.6666 14.3133 12.8255 14.1961 12.9427C14.0789 13.06 13.9199 13.1258 13.7541 13.1258H13.75C13.5842 13.1258 13.4252 13.06 13.308 12.9427C13.1908 12.8255 13.125 12.6666 13.125 12.5008V12.4958ZM11.2483 10.6191C11.2483 10.4534 11.3141 10.2944 11.4313 10.1772C11.5486 10.06 11.7075 9.99414 11.8733 9.99414H13.7483C13.9141 9.99414 14.073 10.06 14.1902 10.1772C14.3074 10.2944 14.3733 10.4534 14.3733 10.6191C14.3733 10.7849 14.3074 10.9439 14.1902 11.0611C14.073 11.1783 13.9141 11.2441 13.7483 11.2441H11.8733C11.7075 11.2441 11.5486 11.1783 11.4313 11.0611C11.3141 10.9439 11.2483 10.7849 11.2483 10.6191ZM5.62329 12.4941C5.62329 12.3284 5.68914 12.1694 5.80635 12.0522C5.92356 11.935 6.08253 11.8691 6.24829 11.8691H9.99829C10.1641 11.8691 10.323 11.935 10.4402 12.0522C10.5574 12.1694 10.6233 12.3284 10.6233 12.4941C10.6233 12.6599 10.5574 12.8189 10.4402 12.9361C10.323 13.0533 10.1641 13.1191 9.99829 13.1191H6.24829C6.08253 13.1191 5.92356 13.0533 5.80635 12.9361C5.68914 12.8189 5.62329 12.6599 5.62329 12.4941Z" fill="#6B7280"/>
<path fill-rule="evenodd" clip-rule="evenodd" d="M15 2.49414C15 2.32838 14.9341 2.16941 14.8169 2.0522C14.6997 1.93499 14.5407 1.86914 14.375 1.86914C14.2092 1.86914 14.0502 1.93499 13.933 2.0522C13.8158 2.16941 13.75 2.32838 13.75 2.49414V3.74414H6.24996V2.49497C6.24996 2.32921 6.18411 2.17024 6.0669 2.05303C5.94969 1.93582 5.79072 1.86997 5.62496 1.86997C5.4592 1.86997 5.30023 1.93582 5.18302 2.05303C5.06581 2.17024 4.99996 2.32921 4.99996 2.49497V3.74247H4.37329C3.71025 3.74247 3.07437 4.00587 2.60552 4.47471C2.13668 4.94355 1.87329 5.57943 1.87329 6.24247V15.6191C1.87329 16.2822 2.13668 16.9181 2.60552 17.3869C3.07437 17.8557 3.71025 18.1191 4.37329 18.1191H15.6233C16.2863 18.1191 16.9222 17.8557 17.3911 17.3869C17.8599 16.9181 18.1233 16.2822 18.1233 15.6191V6.24331C18.1233 5.58027 17.8599 4.94438 17.3911 4.47554C16.9222 4.0067 16.2863 3.74331 15.6233 3.74331H15V2.49414ZM3.12329 15.6191V9.36914C3.12329 9.03762 3.25499 8.71968 3.48941 8.48526C3.72383 8.25084 4.04177 8.11914 4.37329 8.11914H15.6233C15.9548 8.11914 16.2728 8.25084 16.5072 8.48526C16.7416 8.71968 16.8733 9.03762 16.8733 9.36914V15.6191C16.8733 15.9507 16.7416 16.2686 16.5072 16.503C16.2728 16.7374 15.9548 16.8691 15.6233 16.8691H4.37329C4.04177 16.8691 3.72383 16.7374 3.48941 16.503C3.25499 16.2686 3.12329 15.9507 3.12329 15.6191Z" fill="#6B7280"/>
</svg>
