<svg width="24" height="24" viewBox="0 0 24 24" fill="none" xmlns="http://www.w3.org/2000/svg">
<path d="M21.4922 1.24337C21.0797 1.24899 20.6438 1.37837 20.3156 1.56399C19.7297 1.89306 19.2375 2.91024 18.9563 3.58478C18.5181 3.33606 18.0535 3.19084 17.6075 3.16324C17.1615 3.13565 16.7493 3.2266 16.411 3.42728L20.5735 7.59353C20.7746 7.25463 20.8657 6.84159 20.8378 6.39468C20.8099 5.94778 20.6639 5.48226 20.4141 5.04353C21.0891 4.76696 22.1063 4.26915 22.4344 3.68556C22.786 3.07103 22.936 2.06462 22.4344 1.56399C22.2 1.32962 21.8578 1.23821 21.4922 1.24337ZM15.5438 3.75212L14.0156 5.2779L18.7219 9.98415L20.25 8.46071L15.5438 3.75212ZM12.6844 5.74665C12.0516 5.73259 11.1422 6.0279 10.0078 7.16696L1.5197 15.656C1.35376 15.8201 1.24548 16.1107 1.24548 16.4154C1.24548 16.7201 1.35376 17.0107 1.5197 17.1748L6.82502 22.481C6.98908 22.6498 7.2797 22.7576 7.58908 22.7576C7.89376 22.7576 8.18439 22.6498 8.34845 22.481L8.57814 22.2467L7.28908 20.9576L7.88908 20.3576L9.17814 21.6467L10.1672 20.6576L8.87814 19.3685L9.47814 18.7685L10.7672 20.0576L11.761 19.0685L9.40783 16.7154L10.0078 16.1154L12.361 18.4685L13.35 17.4748L12.061 16.1857L12.661 15.5857L13.95 16.8748L14.9438 15.8857L13.65 14.592L14.25 13.992L15.5438 15.2857L16.5328 14.292L14.1797 11.9435L14.7797 11.3435L17.1235 13.6826C18.7922 11.8451 18.2063 10.6592 17.8922 10.3498L13.65 6.10759C13.5047 5.96228 13.1766 5.76071 12.6844 5.74665Z" fill="#041133"/>
</svg>
