<svg width="20" height="20" viewBox="0 0 20 20" fill="none" xmlns="http://www.w3.org/2000/svg">
<path d="M6.25001 3.33366C6.71024 3.33366 7.08334 2.96056 7.08334 2.50033C7.08334 2.04009 6.71024 1.66699 6.25001 1.66699H5.00001C3.15906 1.66699 1.66667 3.15938 1.66667 5.00033V15.0003C1.66667 16.8413 3.15906 18.3337 5.00001 18.3337H6.25C6.71024 18.3337 7.08334 17.9606 7.08334 17.5003C7.08334 17.0401 6.71024 16.667 6.25 16.667H5.00001C4.07953 16.667 3.33334 15.9208 3.33334 15.0003L3.33334 5.00033C3.33334 4.07985 4.07953 3.33366 5.00001 3.33366H6.25001Z" fill="#EF4444"/>
<path d="M18.9226 10.5896C19.248 10.2641 19.248 9.73651 18.9226 9.41107L15.5893 6.07774C15.2638 5.7523 14.7362 5.7523 14.4107 6.07774C14.0853 6.40317 14.0853 6.93081 14.4107 7.25625L16.3215 9.16699L6.66667 9.16699C6.20643 9.16699 5.83334 9.54009 5.83334 10.0003C5.83334 10.4606 6.20643 10.8337 6.66667 10.8337L16.3215 10.8337L14.4107 12.7444C14.0853 13.0698 14.0853 13.5975 14.4107 13.9229C14.7362 14.2484 15.2638 14.2484 15.5893 13.9229L18.9226 10.5896Z" fill="#EF4444"/>
</svg>
