<svg width="20" height="20" viewBox="0 0 20 20" fill="none" xmlns="http://www.w3.org/2000/svg">
<path fill-rule="evenodd" clip-rule="evenodd" d="M6.875 5.625C6.875 4.7962 7.20424 4.00134 7.79029 3.41529C8.37634 2.82924 9.1712 2.5 10 2.5C10.8288 2.5 11.6237 2.82924 12.2097 3.41529C12.7958 4.00134 13.125 4.7962 13.125 5.625C13.125 6.4538 12.7958 7.24866 12.2097 7.83471C11.6237 8.42076 10.8288 8.75 10 8.75C9.1712 8.75 8.37634 8.42076 7.79029 7.83471C7.20424 7.24866 6.875 6.4538 6.875 5.625ZM13.125 8.125C13.125 7.46196 13.3884 6.82607 13.8572 6.35723C14.3261 5.88839 14.962 5.625 15.625 5.625C16.288 5.625 16.9239 5.88839 17.3928 6.35723C17.8616 6.82607 18.125 7.46196 18.125 8.125C18.125 8.78804 17.8616 9.42393 17.3928 9.89277C16.9239 10.3616 16.288 10.625 15.625 10.625C14.962 10.625 14.3261 10.3616 13.8572 9.89277C13.3884 9.42393 13.125 8.78804 13.125 8.125ZM1.875 8.125C1.875 7.46196 2.13839 6.82607 2.60723 6.35723C3.07607 5.88839 3.71196 5.625 4.375 5.625C5.03804 5.625 5.67393 5.88839 6.14277 6.35723C6.61161 6.82607 6.875 7.46196 6.875 8.125C6.875 8.78804 6.61161 9.42393 6.14277 9.89277C5.67393 10.3616 5.03804 10.625 4.375 10.625C3.71196 10.625 3.07607 10.3616 2.60723 9.89277C2.13839 9.42393 1.875 8.78804 1.875 8.125ZM5.25833 12.5975C5.76662 11.8009 6.46757 11.1452 7.29635 10.6912C8.12513 10.2372 9.05501 9.99947 10 10C10.7915 9.99928 11.5743 10.1657 12.297 10.4885C13.0197 10.8112 13.6661 11.2829 14.1939 11.8728C14.7217 12.4627 15.119 13.1574 15.3597 13.9114C15.6004 14.6654 15.6792 15.4618 15.5908 16.2483C15.58 16.3461 15.5463 16.4398 15.4925 16.5221C15.4386 16.6043 15.3661 16.6727 15.2808 16.7217C13.6738 17.6438 11.8528 18.1277 10 18.125C8.07917 18.125 6.275 17.615 4.71917 16.7217C4.63391 16.6727 4.5614 16.6043 4.50754 16.5221C4.45367 16.4398 4.41997 16.3461 4.40917 16.2483C4.26921 14.9705 4.56872 13.6831 5.25833 12.5983V12.5975Z" fill="#B1B5C0"/>
<path d="M4.235 11.8779C3.41313 13.1466 3.03021 14.6499 3.145 16.1571C2.64459 16.0812 2.15242 15.9585 1.675 15.7904L1.57917 15.7571C1.49366 15.7267 1.41879 15.6723 1.36362 15.6002C1.30845 15.5282 1.27535 15.4417 1.26833 15.3513L1.26 15.2504C1.22634 14.8321 1.2773 14.4112 1.40984 14.013C1.54238 13.6147 1.75378 13.2473 2.03143 12.9325C2.30909 12.6178 2.6473 12.3622 3.0259 12.181C3.40449 11.9998 3.8157 11.8967 4.235 11.8779ZM16.855 16.1571C16.9698 14.6499 16.5869 13.1466 15.765 11.8779C16.1843 11.8967 16.5955 11.9998 16.9741 12.181C17.3527 12.3622 17.6909 12.6178 17.9686 12.9325C18.2462 13.2473 18.4576 13.6147 18.5902 14.013C18.7227 14.4112 18.7737 14.8321 18.74 15.2504L18.7317 15.3513C18.7245 15.4416 18.6913 15.5279 18.6362 15.5997C18.581 15.6716 18.5062 15.726 18.4208 15.7563L18.325 15.7896C17.8525 15.9563 17.3617 16.0804 16.855 16.1571Z" fill="#B1B5C0"/>
</svg>
