<svg width="16" height="16" viewBox="0 0 16 16" fill="none" xmlns="http://www.w3.org/2000/svg">
<path fill-rule="evenodd" clip-rule="evenodd" d="M8.16675 5C8.99175 5 9.66675 4.325 9.66675 3.5C9.66675 2.675 8.99175 2 8.16675 2C7.34175 2 6.66675 2.675 6.66675 3.5C6.66675 4.325 7.34175 5 8.16675 5ZM8.16675 6.5C7.34175 6.5 6.66675 7.175 6.66675 8C6.66675 8.825 7.34175 9.5 8.16675 9.5C8.99175 9.5 9.66675 8.825 9.66675 8C9.66675 7.175 8.99175 6.5 8.16675 6.5ZM8.16675 11C7.34175 11 6.66675 11.675 6.66675 12.5C6.66675 13.325 7.34175 14 8.16675 14C8.99175 14 9.66675 13.325 9.66675 12.5C9.66675 11.675 8.99175 11 8.16675 11Z" fill="#5F6368"/>
</svg>
