<svg width="24" height="24" viewBox="0 0 24 24" fill="none" xmlns="http://www.w3.org/2000/svg">
<path fill-rule="evenodd" clip-rule="evenodd" d="M6.53503 13.1425C7.01603 13.7305 8.24003 15.909 8.50003 17H15.5C15.76 15.91 16.9825 13.7315 17.4635 13.144C18.2854 12.1413 18.8029 10.9241 18.9545 9.6365C19.1041 8.35136 18.8804 7.05033 18.31 5.889C17.7346 4.71884 16.8393 3.7357 15.728 3.0535C14.6073 2.36373 13.317 1.99899 12.001 2C10.6825 2 9.39053 2.365 8.27403 3.0525C7.16242 3.73442 6.26682 4.7174 5.69103 5.8875C5.12038 7.04838 4.89611 8.34904 5.04503 9.634C5.19453 10.9175 5.71103 12.134 6.53503 13.1425ZM12.5 6L9.50003 10.5H11.5V13.5L14.5 9H12.5V6Z" fill="#041133"/>
<path d="M8.5 18.5C8.5 18.3674 8.55268 18.2402 8.64645 18.1464C8.74021 18.0527 8.86739 18 9 18H15C15.1326 18 15.2598 18.0527 15.3536 18.1464C15.4473 18.2402 15.5 18.3674 15.5 18.5C15.5 18.6326 15.4473 18.7598 15.3536 18.8536C15.2598 18.9473 15.1326 19 15 19H9C8.86739 19 8.74021 18.9473 8.64645 18.8536C8.55268 18.7598 8.5 18.6326 8.5 18.5ZM15.5 20H8.5V21C8.5 21.2652 8.60536 21.5196 8.79289 21.7071C8.98043 21.8946 9.23478 22 9.5 22H14.5C14.7652 22 15.0196 21.8946 15.2071 21.7071C15.3946 21.5196 15.5 21.2652 15.5 21V20Z" fill="#041133"/>
</svg>
