<svg width="16" height="16" viewBox="0 0 16 16" fill="none" xmlns="http://www.w3.org/2000/svg">
<path d="M7.99984 2.01122C8.18257 1.98593 8.37476 2.03589 8.5223 2.16942L13.7889 6.93602C14.0525 7.17463 14.074 7.58133 13.8368 7.84618C13.5978 8.11295 13.1873 8.13436 12.9217 7.89403L12.495 7.50731V13.0005C12.4947 13.5525 12.047 14.0004 11.495 14.0005H4.47348C3.92153 14.0003 3.47371 13.5524 3.47348 13.0005V7.53563L3.07797 7.89403C2.81241 8.13426 2.40188 8.11292 2.16293 7.84618C1.9259 7.58138 1.94738 7.1746 2.21078 6.93602L7.47836 2.16942C7.62581 2.03602 7.81725 1.98603 7.99984 2.01122ZM4.76254 6.36962V12.7046H11.2059V6.34032L7.99984 3.43895L4.76254 6.36962Z" fill="#5F6368"/>
</svg>
