<svg width="20" height="20" viewBox="0 0 20 20" fill="none" xmlns="http://www.w3.org/2000/svg">
<path d="M6.24996 3.33366C6.7102 3.33366 7.08329 2.96056 7.08329 2.50033C7.08329 2.04009 6.7102 1.66699 6.24996 1.66699H4.99996C3.15901 1.66699 1.66663 3.15938 1.66663 5.00033V15.0003C1.66663 16.8413 3.15901 18.3337 4.99996 18.3337H6.24996C6.7102 18.3337 7.08329 17.9606 7.08329 17.5003C7.08329 17.0401 6.7102 16.667 6.24996 16.667H4.99996C4.07949 16.667 3.33329 15.9208 3.33329 15.0003L3.33329 5.00033C3.33329 4.07985 4.07949 3.33366 4.99996 3.33366H6.24996Z" fill="#EF4444"/>
<path d="M18.9225 10.5896C19.248 10.2641 19.248 9.73651 18.9225 9.41107L15.5892 6.07774C15.2638 5.7523 14.7361 5.7523 14.4107 6.07774C14.0853 6.40317 14.0853 6.93081 14.4107 7.25625L16.3214 9.16699L6.66663 9.16699C6.20639 9.16699 5.83329 9.54009 5.83329 10.0003C5.83329 10.4606 6.20639 10.8337 6.66663 10.8337L16.3214 10.8337L14.4107 12.7444C14.0853 13.0698 14.0853 13.5975 14.4107 13.9229C14.7361 14.2484 15.2638 14.2484 15.5892 13.9229L18.9225 10.5896Z" fill="#EF4444"/>
</svg>
