<svg width="20" height="20" viewBox="0 0 20 20" fill="none" xmlns="http://www.w3.org/2000/svg">
<path fill-rule="evenodd" clip-rule="evenodd" d="M15.7143 10.9521H10.9524V15.714C10.9524 16.2378 10.5239 16.6663 10 16.6663C9.47623 16.6663 9.04766 16.2378 9.04766 15.714V10.9521H4.28575C3.76195 10.9521 3.33337 10.5235 3.33337 9.99967C3.33337 9.47586 3.76195 9.04729 4.28575 9.04729H9.04766V4.28539C9.04766 3.76158 9.47623 3.33301 10 3.33301C10.5239 3.33301 10.9524 3.76158 10.9524 4.28539V9.04729H15.7143C16.2381 9.04729 16.6667 9.47586 16.6667 9.99967C16.6667 10.5235 16.2381 10.9521 15.7143 10.9521Z" fill="#3C4043"/>
</svg>
